<svg xmlns="http://www.w3.org/2000/svg" xmlns:xlink="http://www.w3.org/1999/xlink" viewBox="0 0 379.21 321.92"><defs><clipPath id="clip-path"><polygon points="152.06 260.75 114.01 260.75 118.56 308.84 147.52 308.84 152.06 260.75" style="fill:none"/></clipPath></defs><g style="isolation:isolate"><g id="OBJECTS"><ellipse cx="189.61" cy="307.98" rx="189.61" ry="13.94" style="fill:#999;opacity:0.1;mix-blend-mode:multiply"/><polygon points="207.06 142.42 172.15 142.42 168.94 167.18 210.27 167.18 207.06 142.42" style="fill:#fff"/><rect x="99.9" y="22.65" width="179.42" height="123.47" rx="5.61" style="fill:#1f181b"/><g style="opacity:0.01;mix-blend-mode:hard-light"><polygon points="115.6 22.65 99.9 38.35 99.9 125.06 202.31 22.65 115.6 22.65" style="fill:#fff"/><path d="M216.63,22.65,99.9,139.38v1.53a5.21,5.21,0,0,0,5.21,5.21h8L236.56,22.65Z" style="fill:#fff"/><path d="M274.11,22.65H250.88L127.41,146.12h86.71l65.2-65.2V27.86A5.21,5.21,0,0,0,274.11,22.65Z" style="fill:#fff"/><polygon points="248.38 146.12 279.31 115.18 279.31 95.24 228.44 146.12 248.38 146.12" style="fill:#fff"/></g><path d="M279.32,140.91V129.57H99.9v11.34a5.21,5.21,0,0,0,5.21,5.21h169A5.21,5.21,0,0,0,279.32,140.91Z" style="fill:#fff"/><polygon points="209.63 162.84 169.58 162.84 161.74 167.18 217.48 167.18 209.63 162.84" style="fill:#fff"/><rect x="166.19" y="61.87" width="46.83" height="36.48" rx="3.82" style="fill:#00c5cb"/><path d="M188.09,76.14,167,96.91a3.83,3.83,0,0,0,1.64,1.19l20.81-20.53Z" style="fill:#00b7b9"/><path d="M191.64,76.14l-1.41,1.43L210.89,98a4,4,0,0,0,1.51-1.33Z" style="fill:#00b7b9"/><path d="M209.21,61.87H170a3.82,3.82,0,0,0-3.82,3.82l22.06,18.88a2.1,2.1,0,0,0,2.71,0L213,65.69A3.82,3.82,0,0,0,209.21,61.87Z" style="fill:#6bd1d8"/><circle cx="203.41" cy="61.87" r="6.94" style="fill:#ff355d"/><path d="M201.9,62.53a1.7,1.7,0,0,1-.94.26,1.89,1.89,0,0,1-2-2,2,2,0,0,1,2.09-2.14c1.62,0,2.09,1.3,2.09,3.07,0,2.18-.71,3.39-2.19,3.39-.36,0-1.53-.07-1.6-.69a.5.5,0,0,1,.54-.56c.29,0,.54.16.95.17C201.68,64,201.84,63.37,201.9,62.53Zm0-1.26c0-.79-.16-1.52-.91-1.52s-.83.48-.83,1,.32.93.85.93a1.35,1.35,0,0,0,.89-.31Z" style="fill:#ffe9ee"/><path d="M206.62,62.53a1.7,1.7,0,0,1-.94.26,1.89,1.89,0,0,1-2-2,2,2,0,0,1,2.09-2.14c1.62,0,2.09,1.3,2.09,3.07,0,2.18-.71,3.39-2.19,3.39-.36,0-1.53-.07-1.6-.69a.5.5,0,0,1,.54-.56c.29,0,.54.16.95.17C206.4,64,206.56,63.37,206.62,62.53Zm0-1.26c0-.79-.16-1.52-.91-1.52s-.83.48-.83,1,.32.93.85.93a1.33,1.33,0,0,0,.89-.31Z" style="fill:#ffe9ee"/><rect x="125.25" y="2.19" width="46.83" height="36.48" rx="3.82" style="fill:#f1f1f1"/><path d="M168.27,2.19h-39.2A3.81,3.81,0,0,0,125.25,6v4.47h46.83V6A3.8,3.8,0,0,0,168.27,2.19Z" style="fill:#008e90"/><path d="M131.21,4.37a.75.75,0,0,1-.75-.75V.75a.75.75,0,0,1,1.5,0V3.62A.75.75,0,0,1,131.21,4.37Z" style="fill:#6bd1d8"/><path d="M138.62,4.37a.75.75,0,0,1-.75-.75V.75a.75.75,0,0,1,1.5,0V3.62A.74.74,0,0,1,138.62,4.37Z" style="fill:#6bd1d8"/><path d="M146,4.37a.75.75,0,0,1-.75-.75V.75a.75.75,0,0,1,1.5,0V3.62A.74.74,0,0,1,146,4.37Z" style="fill:#6bd1d8"/><path d="M153.45,4.37a.74.74,0,0,1-.75-.75V.75a.75.75,0,0,1,1.5,0V3.62A.75.75,0,0,1,153.45,4.37Z" style="fill:#6bd1d8"/><path d="M160.86,4.37a.74.74,0,0,1-.75-.75V.75a.75.75,0,0,1,1.5,0V3.62A.75.75,0,0,1,160.86,4.37Z" style="fill:#6bd1d8"/><path d="M168.27,4.37a.74.74,0,0,1-.75-.75V.75a.75.75,0,0,1,1.5,0V3.62A.75.75,0,0,1,168.27,4.37Z" style="fill:#6bd1d8"/><path d="M146.22,33.36h-7.93a1.61,1.61,0,0,1-1.71-1.59,2.71,2.71,0,0,1,.2-1.13c1-2.12,2.72-3.66,4.43-5.21,1.33-1.2,3.25-2.58,3.25-4.36a2.08,2.08,0,0,0-2.26-2.19,5.11,5.11,0,0,0-2,.38,4.24,4.24,0,0,1-1.71.65,1.55,1.55,0,0,1-1.64-1.46c0-1.76,3.45-2.51,5.4-2.51,3.52,0,5.57,2.17,5.57,4.89a6.23,6.23,0,0,1-1.9,4.56c-1.62,1.68-3.74,3.18-5,5h5.37a1.57,1.57,0,0,1,1.67,1.49A1.58,1.58,0,0,1,146.22,33.36Z" style="fill:#ff4d6f"/><path d="M156.56,23a4.72,4.72,0,0,1,4.19,4.81,5.67,5.67,0,0,1-6,5.76c-1.13,0-5-.31-5-2.31a1.56,1.56,0,0,1,1.6-1.49c1,0,1.63.89,3.27.89a2.53,2.53,0,0,0,2.77-2.7c0-1.59-1.06-2.22-2.74-2.22-.63,0-.63.27-1.23.27a1.57,1.57,0,0,1-1.57-1.59.87.87,0,0,1,.17-.58l3.59-4.36h-3.88a1.58,1.58,0,0,1-1.66-1.52,1.62,1.62,0,0,1,1.66-1.59h6.72A1.64,1.64,0,0,1,160.22,18a1.69,1.69,0,0,1-.38,1.08Z" style="fill:#ff4d6f"/><path d="M91.36,26.63a1.31,1.31,0,0,0-1.46-1.12l-6.35.85a1.3,1.3,0,1,0,.34,2.57l6.35-.84A1.3,1.3,0,0,0,91.36,26.63Z" style="fill:#fff"/><path d="M100.74,14.38a1.3,1.3,0,0,0,1.11-1.46L101,6.57a1.3,1.3,0,1,0-2.58.34l.85,6.35A1.3,1.3,0,0,0,100.74,14.38Z" style="fill:#fff"/><path d="M93.27,16.74l-5.09-3.89a1.29,1.29,0,0,0-1.82.24,1.25,1.25,0,0,0-.25,1,1.29,1.29,0,0,0,.49.86l5.09,3.89a1.3,1.3,0,1,0,1.58-2.06Z" style="fill:#fff"/><path d="M114.52,11.2a1.3,1.3,0,1,0-2.06-1.58l-3.89,5.09a1.29,1.29,0,0,0,.24,1.82,1.3,1.3,0,0,0,1.82-.24Z" style="fill:#fff"/><path d="M290,45.58a.88.88,0,0,0,.6-1.1l-1.24-4.2a.89.89,0,1,0-1.71.51L288.84,45A.9.9,0,0,0,290,45.58Z" style="fill:#fff"/><path d="M299.22,50.62a.88.88,0,0,0,1.1.6l4.2-1.24a.88.88,0,0,0,.6-1.1.9.9,0,0,0-1.11-.6l-4.19,1.24A.88.88,0,0,0,299.22,50.62Z" style="fill:#fff"/><path d="M296.83,45.83,298.92,42a.9.9,0,0,0-1-1.28.94.94,0,0,0-.53.43L295.27,45a.89.89,0,0,0,.36,1.2A.88.88,0,0,0,296.83,45.83Z" style="fill:#fff"/><path d="M302.82,59.59a.88.88,0,0,0,1.2-.35.89.89,0,0,0-.35-1.21l-3.85-2.09a.92.92,0,0,0-.67-.07.9.9,0,0,0-.53.43.87.87,0,0,0,.36,1.2Z" style="fill:#fff"/><path d="M291.09,49.67h-32.9a5.28,5.28,0,0,0-5.27,5.27V83.33a2.39,2.39,0,0,0,1.34,2.16,2.38,2.38,0,0,0,2.53-.23l9.06-6.81h25.24a5.28,5.28,0,0,0,5.27-5.27V54.94A5.28,5.28,0,0,0,291.09,49.67Zm4.11,23.51a4.11,4.11,0,0,1-4.11,4.1H265.66a.55.55,0,0,0-.35.12l-9.22,6.93a1.25,1.25,0,0,1-2-1V54.94a4.11,4.11,0,0,1,4.1-4.1h32.9a4.11,4.11,0,0,1,4.11,4.1Z" style="fill:#fff"/><path d="M261.87,59.82a3.74,3.74,0,1,0,3.74,3.74A3.73,3.73,0,0,0,261.87,59.82Z" style="fill:#fff"/><path d="M274.48,59.82a3.74,3.74,0,1,0,3.74,3.74A3.73,3.73,0,0,0,274.48,59.82Z" style="fill:#fff"/><path d="M287.09,59.82a3.74,3.74,0,1,0,3.74,3.74A3.73,3.73,0,0,0,287.09,59.82Z" style="fill:#fff"/><path d="M75.42,67.42V86.75A5.58,5.58,0,0,0,81,92.33h26.76l9.6,7.23a2.54,2.54,0,0,0,1.53.51A2.59,2.59,0,0,0,120,99.8a2.53,2.53,0,0,0,1.42-2.29V67.42a5.58,5.58,0,0,0-5.58-5.58H81A5.58,5.58,0,0,0,75.42,67.42Zm1.23,0A4.35,4.35,0,0,1,81,63.07h34.88a4.35,4.35,0,0,1,4.35,4.35V97.51a1.32,1.32,0,0,1-.74,1.19,1.3,1.3,0,0,1-1.39-.13l-9.77-7.34a.54.54,0,0,0-.37-.13H81a4.35,4.35,0,0,1-4.35-4.35Z" style="fill:#f1f1f1"/><path d="M112,72.6a4,4,0,1,1-4,4A4,4,0,0,1,112,72.6Z" style="fill:#f1f1f1"/><path d="M98.61,72.6a4,4,0,1,1-4,4A4,4,0,0,1,98.61,72.6Z" style="fill:#f1f1f1"/><path d="M85.24,72.6a4,4,0,1,1-4,4A4,4,0,0,1,85.24,72.6Z" style="fill:#f1f1f1"/><circle cx="229.54" cy="20.42" r="19" transform="translate(52.79 168.29) rotate(-45)" style="fill:#ff355d"/><path d="M236.74,10l-3.68,3.27a1.81,1.81,0,0,0-.1,2.56l1.64,1.85-.21.33a17.7,17.7,0,0,1-3.29,4,17.66,17.66,0,0,1-4.4,2.8l-.35.17-1.1-1.25-.54-.61a1.82,1.82,0,0,0-2.55-.2l-3.68,3.27a1.82,1.82,0,0,0-.11,2.56l.93,1,0,0a5.87,5.87,0,0,0,1.37.89,5.78,5.78,0,0,0,1.42.44c3.78.69,7.36-.84,12.35-5.28,6.9-6.13,6.72-11.41,6.71-11.64a5.79,5.79,0,0,0-.28-1.46,5.43,5.43,0,0,0-.72-1.47l0,0-.91-1.05A1.82,1.82,0,0,0,236.74,10Z" style="fill:#f1f1f1"/><path d="M222.11,7.45a6.94,6.94,0,1,0-6.94,6.94A6.94,6.94,0,0,0,222.11,7.45Z" style="fill:#008e90"/><path d="M214.27,10.58h-2.88a.59.59,0,0,1-.62-.59,1.09,1.09,0,0,1,.07-.42,6.22,6.22,0,0,1,1.61-1.93c.48-.45,1.18-1,1.18-1.62a.76.76,0,0,0-.82-.81,1.81,1.81,0,0,0-.74.14,1.49,1.49,0,0,1-.62.24.57.57,0,0,1-.59-.54c0-.65,1.25-.93,2-.93a1.83,1.83,0,0,1,2,1.81,2.33,2.33,0,0,1-.69,1.69,19.91,19.91,0,0,0-1.83,1.85h2a.57.57,0,0,1,.6.55A.58.58,0,0,1,214.27,10.58Z" style="fill:#ffe9ee"/><path d="M218,6.73a1.74,1.74,0,0,1,1.52,1.79,2.09,2.09,0,0,1-2.18,2.13c-.41,0-1.81-.11-1.81-.85a.58.58,0,0,1,.58-.56c.37,0,.6.33,1.19.33a.93.93,0,0,0,1-1c0-.59-.39-.82-1-.82-.23,0-.23.1-.45.1a.58.58,0,0,1-.57-.59.32.32,0,0,1,.07-.22l1.3-1.62h-1.41a.58.58,0,0,1-.6-.56.59.59,0,0,1,.6-.59h2.44a.6.6,0,0,1,.64.61.63.63,0,0,1-.14.4Z" style="fill:#ffe9ee"/><path d="M89.46,134.55a1.29,1.29,0,0,1,1.29,1.29v28.48a1.29,1.29,0,0,1-1.29,1.28H71.13a1.29,1.29,0,0,1-1.29-1.28V135.84a1.29,1.29,0,0,1,1.29-1.29H89.46m0-1.58H71.13a2.87,2.87,0,0,0-2.87,2.87v28.48a2.87,2.87,0,0,0,2.87,2.86H89.46a2.86,2.86,0,0,0,2.87-2.86V135.84A2.86,2.86,0,0,0,89.46,133Z" style="fill:#fff"/><path d="M89.46,134.55a1.29,1.29,0,0,1,1.29,1.29v22.83A1.29,1.29,0,0,1,89.46,160H71.13a1.29,1.29,0,0,1-1.29-1.29V135.84a1.29,1.29,0,0,1,1.29-1.29H89.46" style="fill:#1f181b"/><circle cx="80.3" cy="147.25" r="8.36" transform="translate(-31.79 22.48) rotate(-13.33)" style="fill:#2b2327"/><path d="M86.67,147.25a6.37,6.37,0,1,0-6.37,6.37A6.38,6.38,0,0,0,86.67,147.25Z" style="fill:#fff"/><path d="M308.08,134.55a1.29,1.29,0,0,1,1.29,1.29v28.48a1.29,1.29,0,0,1-1.29,1.28H289.75a1.29,1.29,0,0,1-1.29-1.28V135.84a1.29,1.29,0,0,1,1.29-1.29h18.33m0-1.58H289.75a2.86,2.86,0,0,0-2.87,2.87v28.48a2.86,2.86,0,0,0,2.87,2.86h18.33a2.86,2.86,0,0,0,2.87-2.86V135.84a2.86,2.86,0,0,0-2.87-2.87Z" style="fill:#fff"/><path d="M308.08,134.55a1.29,1.29,0,0,1,1.29,1.29v22.83a1.29,1.29,0,0,1-1.29,1.29H289.75a1.29,1.29,0,0,1-1.29-1.29V135.84a1.29,1.29,0,0,1,1.29-1.29h18.33" style="fill:#1f181b"/><circle cx="298.92" cy="147.25" r="8.36" transform="translate(-16.57 254.5) rotate(-45)" style="fill:#2b2327"/><path d="M305.29,147.25a6.37,6.37,0,1,0-6.37,6.37A6.38,6.38,0,0,0,305.29,147.25Z" style="fill:#fff"/><path d="M363.44,305.23,334.33,174.78a8.9,8.9,0,0,0-10.84-7,9.65,9.65,0,0,0-6.7,11.53,8.29,8.29,0,0,0,.24.89l41.12,126.67a2.69,2.69,0,0,0,3.5,1.78A3,3,0,0,0,363.44,305.23Z" style="fill:#eee"/><path d="M287.8,305.23l29.11-130.45a8.9,8.9,0,0,1,10.84-7,9.66,9.66,0,0,1,6.71,11.53c-.07.3-.16.61-.25.89L293.1,306.89a2.7,2.7,0,0,1-3.5,1.78A3,3,0,0,1,287.8,305.23Z" style="fill:#fff"/><path d="M87.1,213.51H72l30.31,93.38a2.71,2.71,0,0,0,3.51,1.78,3,3,0,0,0,1.79-3.44Z" style="fill:#eee"/><path d="M52.4,213.51,31.93,305.23a3,3,0,0,0,1.79,3.44,2.7,2.7,0,0,0,3.51-1.78l30.31-93.38Z" style="fill:#fff"/><path d="M36.34,216.06l-2.06-38.33A2.56,2.56,0,0,1,36.74,175a2.78,2.78,0,0,1,2.74,2.67,2.44,2.44,0,0,1,0,.27l-1.55,38.22a.78.78,0,0,1-.83.76A.86.86,0,0,1,36.34,216.06Z" style="fill:#fff"/><path d="M101.69,215.35,99.63,177a2.55,2.55,0,0,1,2.45-2.77,2.77,2.77,0,0,1,2.75,2.66,1.22,1.22,0,0,1,0,.27l-1.55,38.22a.77.77,0,0,1-.83.76A.85.85,0,0,1,101.69,215.35Z" style="fill:#eee"/><path d="M354.14,167.18H25.62A5.59,5.59,0,0,0,20,172.77h0a5.58,5.58,0,0,0,5.59,5.58H354.14a5.58,5.58,0,0,0,5.58-5.58h0A5.58,5.58,0,0,0,354.14,167.18Z" style="fill:#ff355d"/><path d="M34.95,207.25h69.61a5.72,5.72,0,0,1,5.72,5.72v84a5.72,5.72,0,0,1-5.72,5.72H34.95A5.71,5.71,0,0,1,29.23,297V213A5.71,5.71,0,0,1,34.95,207.25Z" style="fill:#ff355d"/><path d="M36.49,225.37H103a5,5,0,0,1,5,5v65.3a5,5,0,0,1-5,5H36.49a5,5,0,0,1-5-5v-65.3A5,5,0,0,1,36.49,225.37Z" style="fill:#ea2051"/><rect x="32.08" y="225.97" width="75.34" height="74.11" rx="4.4" style="fill:#ff4d6f"/><path d="M77.06,229.71H62.38a1.83,1.83,0,0,0-1.82,1.82h0a1.83,1.83,0,0,0,1.82,1.83H77.06a1.82,1.82,0,0,0,1.82-1.83h0A1.82,1.82,0,0,0,77.06,229.71Z" style="fill:#1f181b"/><polygon points="314.94 183.61 336.3 183.61 335.13 178.35 316.11 178.35 314.94 183.61" style="fill:#b3b3b3;opacity:0.12;mix-blend-mode:multiply"/><path d="M312.82,214.28a1.28,1.28,0,0,0-.54-.69c-.44-.29,4.63-20.2,4.86-22.2a138.39,138.39,0,0,0,.4-25.59c-.22-2.92-.05-10.24-3.62-11.39-2.39-.76-4.71,1.79-6.35,3.11a21.08,21.08,0,0,1-1.9,1.4c-.47.3-1.65.63-1.91,1.1-.37.64.54,2.2.82,2.78,2.92,6,2.23,13.33,1.91,19.93-.29,6-.79,12.05-1.53,18.09-.65,5.39-1.2,11.25-4.57,15.69-1.42,1.87-5,3.25-3.48,6a1.45,1.45,0,0,0,1.41.78,9.24,9.24,0,0,0,4.45-1.39c-.19.11-.2,1.65-.24,1.91a17.75,17.75,0,0,1-.35,2,25.68,25.68,0,0,0-.54,4,1.93,1.93,0,0,0,.26,1.55,1.39,1.39,0,0,0,.71.37,5.06,5.06,0,0,0,2.18-.15c1.51-.34,3.41-.63,4.66-1.65s2.76-1.4,3.76-2.77C315.88,223.53,314.08,217.89,312.82,214.28Z" style="fill:#eda68f"/><rect x="224.83" y="241.57" width="28.96" height="15.49" rx="5.69" transform="translate(478.62 498.63) rotate(180)" style="fill:#1f181b"/><path d="M283,244.54a3.69,3.69,0,0,0,3.44-3.52h0c.47-4.39,3.12-16.51,9.68-19.85a4.26,4.26,0,0,0,1.76-5.28,3.3,3.3,0,0,0-4.57-2c-11.52,5.88-13.68,25.38-13.76,26.21a3.91,3.91,0,0,0,3,4.45A3,3,0,0,0,283,244.54Z" style="fill:#1f181b"/><path d="M190.4,243.77c0-8,21.78-14.46,48.64-14.46s48.64,6.47,48.64,14.46S190.4,251.76,190.4,243.77Z" style="fill:#ff4d6f"/><path d="M193.58,238.63a5.32,5.32,0,0,0-1.06,3.06c0,8,93,8,93,0a5.32,5.32,0,0,0-1.06-3.06c2.05,1.6,3.18,3.33,3.18,5.14,0,8-97.28,8-97.28,0C190.4,242,191.53,240.23,193.58,238.63Z" style="fill:#ea2051"/><path d="M287.77,236.26c-7.36-4.19-6.08-24.53,2.86-45.44s22.17-34.45,29.54-30.26S295.14,240.45,287.77,236.26Z" style="fill:#ff4d6f"/><path d="M286.7,233.9c6.43,3.66,37.62-69.23,31.18-72.89a5.72,5.72,0,0,0-5.11,0c2.78-1.4,5.32-1.63,7.4-.45,7.36,4.19-25,79.89-32.4,75.7-2.07-1.18-3.46-3.64-4.19-7A7.48,7.48,0,0,0,286.7,233.9Z" style="fill:#ea2051"/><rect x="234.17" y="257.06" width="10.28" height="33.81" transform="translate(478.62 547.93) rotate(180)" style="fill:#2b2327"/><path d="M196.14,311.91a3.5,3.5,0,0,0,3.5-3.5v-5a9.1,9.1,0,0,1,9.09-9.09h61.15a9.11,9.11,0,0,1,9.1,9.09v5a3.5,3.5,0,1,0,7,0v-5a16.11,16.11,0,0,0-16.1-16.09H208.73a16.11,16.11,0,0,0-16.09,16.09v5A3.5,3.5,0,0,0,196.14,311.91Z" style="fill:#1f181b"/><path d="M208.85,311.91a3.5,3.5,0,0,0,3.5-3.5v-4.05c0-3.76,2.42-6.82,5.39-6.82h43.14c3,0,5.39,3.06,5.39,6.82v4.05a3.5,3.5,0,1,0,7,0v-4.05c0-7.62-5.56-13.82-12.39-13.82H217.74c-6.83,0-12.39,6.2-12.39,13.82v4.05A3.5,3.5,0,0,0,208.85,311.91Z" style="fill:#1f181b"/><circle cx="285.24" cy="307.98" r="6.87" style="fill:#1f181b"/><path d="M282.48,308a2.76,2.76,0,1,1,2.76,2.76A2.77,2.77,0,0,1,282.48,308Z" style="fill:#2b2327"/><circle cx="267.77" cy="309.49" r="6.87" style="fill:#1f181b"/><path d="M265,309.49a2.76,2.76,0,1,1,2.76,2.76A2.76,2.76,0,0,1,265,309.49Z" style="fill:#2b2327"/><path d="M200.25,308a6.87,6.87,0,1,0-6.87,6.87A6.87,6.87,0,0,0,200.25,308Z" style="fill:#1f181b"/><path d="M196.14,308a2.76,2.76,0,1,0-2.76,2.76A2.77,2.77,0,0,0,196.14,308Z" style="fill:#2b2327"/><circle cx="210.85" cy="309.49" r="6.87" style="fill:#1f181b"/><path d="M213.61,309.49a2.76,2.76,0,1,0-2.76,2.76A2.76,2.76,0,0,0,213.61,309.49Z" style="fill:#2b2327"/><path d="M56.68,196H93.77v10.14H56.68A5.06,5.06,0,0,1,51.62,201h0A5.06,5.06,0,0,1,56.68,196Z" style="fill:#fff"/><path d="M94.1,207.25H56.71a6.33,6.33,0,0,1,0-12.66H94.1a1,1,0,0,1,0,2H56.71a4.33,4.33,0,1,0,0,8.66H94.1a1,1,0,1,1,0,2Z" style="fill:#f6eac9"/><path d="M46.89,183.31H84v10.13H46.89a5.06,5.06,0,0,1-5.06-5.07h0A5.06,5.06,0,0,1,46.89,183.31Z" style="fill:#fff"/><path d="M84.31,194.59H46.92a6.33,6.33,0,0,1,0-12.66H84.31a1,1,0,0,1,0,2H46.92a4.33,4.33,0,0,0,0,8.66H84.31a1,1,0,0,1,0,2Z" style="fill:#6bd1d8"/><path d="M148,309.34H118.1l-4.64-49.09h39.15Zm-29-1h28.05l4.46-47.09h-37Z" style="fill:#f7f3e4"/><polygon points="118.03 303.26 118.56 308.84 147.52 308.84 148.05 303.26 118.03 303.26" style="fill:#f7f3e4"/><path d="M152.55,259.07h-39a1.07,1.07,0,0,0-1.07,1.08h0a1.07,1.07,0,0,0,1.07,1.07h39a1.07,1.07,0,0,0,1.08-1.07h0A1.08,1.08,0,0,0,152.55,259.07Z" style="fill:#f7f3e4"/><g style="clip-path:url(#clip-path)"><path d="M154.47,264.38l2-2-2.57-2.57-2.09,2.08-2.08-2.08-2.09,2.08-2.08-2.08-2.09,2.08-2.08-2.08-2.09,2.08-2.08-2.08-2.09,2.08L133,259.82,131,261.9l-2.08-2.08-2.09,2.08-2.08-2.08-2.08,2.08-2.09-2.08-2.08,2.08-2.09-2.08-2.08,2.08-2.09-2.08-2.57,2.57,2,2-2,2,2,2-2,2,2,2-2,2,2,2-2,2,2,2-2,2,2,2-2,2,2,2-2,2,2,2-2,2,2,2-2,2,2,2-2,2,2.57,2.57,2.09-2.09,2.08,2.09,2.09-2.09,2.08,2.09,2.09-2.09,2.08,2.09,2.08-2.09,2.09,2.09,2.08-2.09,2.09,2.09,2.08-2.09,2.09,2.09,2.08-2.09,2.09,2.09,2.08-2.09,2.09,2.09,2.08-2.09,2.09,2.09,2.08-2.09,2.09,2.09,2.57-2.57-2-2,2-2-2-2,2-2-2-2,2-2-2-2,2-2-2-2,2-2-2-2,2-2-2-2,2-2-2-2,2-2-2-2,2-2Zm-.58-4.21,2.21,2.22-1.8,1.81-.41-.41-.41.41-1.5-1.5.31-.31-.31-.31Zm.23,4.21-.23.23-.24-.23.24-.24Zm-2.19,2-.13.13-.13-.13.13-.13Zm-.31.31-1.49,1.5-.41-.41-.41.41-1.5-1.5.31-.31-.31-.31,1.5-1.5.41.41.41-.41,1.49,1.5-.31.31Zm.31,3.66-.13.13-.13-.13.13-.13Zm-.31.31-1.49,1.5-.41-.41-.41.41-1.5-1.5.31-.31-.31-.31,1.5-1.5.41.41.41-.41,1.49,1.5-.31.31Zm.31,3.66-.13.13-.13-.13.13-.13Zm-.31.31-1.49,1.5-.41-.41-.41.41-1.5-1.5.31-.31-.31-.31,1.5-1.5.41.41.41-.41,1.49,1.5-.31.31Zm.31,3.66-.13.13-.13-.13.13-.13Zm-.31.31-1.49,1.5-.41-.41-.41.41-1.5-1.5.31-.31-.31-.31,1.5-1.5.41.41.41-.41,1.49,1.5-.31.31Zm.31,3.66-.13.13-.13-.13.13-.14Zm-.31.31-1.49,1.5-.41-.41-.41.41-1.5-1.5.31-.31-.31-.31,1.5-1.5.41.41.41-.41,1.49,1.5-.31.31Zm.31,3.66-.13.13-.13-.13.13-.14Zm-.31.31-1.49,1.5-.41-.41-.41.41-1.5-1.5.31-.31-.31-.31,1.5-1.5.41.41.41-.41,1.49,1.5-.31.31Zm.31,3.66-.13.13-.13-.13.13-.14Zm-.31.31-1.49,1.5-.41-.41-.41.41-1.5-1.5.31-.31-.31-.31,1.5-1.5.41.41.41-.41,1.49,1.5-.31.31Zm.31,3.66-.13.13-.13-.13.13-.14Zm-.31.31-1.49,1.5-.41-.41-.41.41-1.5-1.5.31-.31-.31-.31,1.5-1.5.41.41.41-.41,1.49,1.5-.31.31Zm.31,3.66-.13.13-.13-.13.13-.14Zm-.31.31-1.49,1.5-.41-.41-.41.41-1.5-1.5.31-.31-.31-.31,1.5-1.5.41.41.41-.41,1.49,1.5-.31.31Zm.18.17,1.5,1.5-1.5,1.5-1.5-1.5ZM150,300.1l-.23.24-.24-.24.24-.23Zm-4.4-.58-.41.41-1.5-1.5.31-.31-.31-.31,1.5-1.5.41.41.41-.41,1.49,1.5-.31.31.31.31-1.49,1.5Zm.23.58-.23.24-.24-.24.24-.23Zm-4.4-.58-.41.41-1.5-1.5.31-.31-.31-.31,1.5-1.5.41.41.41-.41,1.5,1.5-.31.31.31.31-1.5,1.5Zm.23.58-.23.24-.24-.24.24-.23Zm-4.4-.58-.41.41-1.5-1.5.31-.31-.31-.31,1.5-1.5.41.41.41-.41,1.5,1.5-.31.31.31.31-1.5,1.5Zm.23.58-.23.24-.23-.24.23-.23Zm-4.4-.58-.41.41-1.5-1.5.31-.31-.31-.31,1.5-1.5.41.41.41-.41,1.5,1.5-.31.31.31.31-1.5,1.5Zm.23.58-.23.24-.23-.24.23-.23Zm-4.4-.58-.41.41-1.5-1.5.31-.31-.31-.31,1.5-1.5.41.41.41-.41,1.5,1.5-.31.31.31.31-1.5,1.5Zm.23.58-.23.24-.23-.24.23-.23Zm-4.4-.58-.41.41-1.5-1.5.31-.31-.31-.31,1.5-1.5.41.41.41-.41,1.5,1.5-.31.31.31.31-1.5,1.5Zm.23.58-.23.24-.23-.24.23-.23Zm-4.4-.58-.41.41-1.5-1.5.31-.31-.31-.31,1.5-1.5.41.41.41-.41,1.5,1.5-.31.31.31.31-1.5,1.5Zm.23.58-.23.24-.23-.24.23-.23Zm-4.4-.58-.41.41-1.5-1.5.31-.31-.31-.31,1.5-1.5.41.41.41-.41,1.5,1.5-.31.31.31.31-1.5,1.5Zm.23.58-.23.24-.23-.24.23-.23Zm-.82,0-1.49,1.5-1.5-1.5,1.5-1.5Zm-1.63-2,.14-.14.13.14-.13.13Zm0-4,.14-.14.13.14-.13.13Zm.31-.31,1.5-1.5.41.41.41-.41,1.5,1.5-.31.31.31.31-1.5,1.5-.41-.41L116,296l-1.5-1.5.31-.31Zm-.31-3.66.14-.14.13.14-.13.13Zm.31-.31,1.5-1.5.41.41.41-.41,1.5,1.5-.31.31.31.31-1.5,1.5-.41-.41L116,292l-1.5-1.5.31-.31Zm-.31-3.66.14-.14.13.14-.13.13Zm.31-.31,1.5-1.5.41.41.41-.41,1.5,1.5-.31.31.31.31-1.5,1.5-.41-.41L116,288l-1.5-1.5.31-.31Zm-.31-3.66.14-.14.13.14-.13.13Zm.31-.31,1.5-1.5.41.41.41-.41,1.5,1.5-.31.31.31.31-1.5,1.5-.41-.41-.41.41-1.5-1.5.31-.31Zm-.31-3.66.14-.13.13.13-.13.13Zm.31-.31,1.5-1.5.41.41.41-.41,1.5,1.5-.31.31.31.31-1.5,1.5-.41-.41-.41.41-1.5-1.5.31-.31Zm-.31-3.66.14-.13.13.13-.13.13Zm.31-.31,1.5-1.5.41.41.41-.41,1.5,1.5-.31.31.31.31-1.5,1.5-.41-.41-.41.41-1.5-1.5.31-.31Zm-.31-3.66.14-.13.13.13-.13.13Zm.31-.31,1.5-1.5.41.41.41-.41,1.5,1.5-.31.31.31.31-1.5,1.5-.41-.41-.41.41-1.5-1.5.31-.31Zm-.31-3.66.14-.13.13.13-.13.13Zm.31-.31,1.5-1.5.41.41.41-.41,1.5,1.5-.31.31.31.31-1.5,1.5-.41-.41-.41.41-1.5-1.5.31-.31Zm-.17-.18-1.5-1.49,1.5-1.5,1.49,1.5Zm1.85-1.49.23-.24.23.24-.23.23Zm4.4.58.41-.41,1.5,1.5-.31.31.31.31-1.5,1.5-.41-.41-.41.41-1.5-1.5.31-.31-.31-.31,1.5-1.5Zm-.23-.58.23-.24.23.24-.23.23Zm4.4.58.41-.41,1.5,1.5-.31.31.31.31-1.5,1.5-.41-.41-.41.41-1.5-1.5.31-.31-.31-.31,1.5-1.5Zm-.23-.58.23-.24.23.24-.23.23Zm4.4.58.41-.41,1.5,1.5-.31.31.31.31-1.5,1.5-.41-.41-.41.41-1.5-1.5.31-.31-.31-.31,1.5-1.5Zm-.23-.58.23-.24.23.24-.23.23Zm4.4.58.41-.41,1.5,1.5-.31.31.31.31-1.5,1.5-.41-.41-.41.41-1.5-1.5.31-.31-.31-.31,1.5-1.5Zm-.23-.58.23-.24.23.24-.23.23Zm4.4.58.41-.41,1.5,1.5-.31.31.31.31-1.5,1.5-.41-.41-.41.41-1.5-1.5.31-.31-.31-.31,1.5-1.5Zm-.24-.58.24-.24.23.24-.23.23Zm4.41.58.41-.41,1.5,1.5-.31.31.31.31-1.5,1.5-.41-.41-.41.41-1.5-1.5.31-.31-.31-.31,1.5-1.5Zm-.24-.58.24-.24.23.24-.23.23Zm4.41.58.41-.41,1.49,1.5-.31.31.31.31-1.49,1.5-.41-.41-.41.41-1.5-1.5.31-.31-.31-.31,1.5-1.5Zm-.24-.58.24-.24.23.24-.23.23Zm.82,0,1.5-1.5,1.5,1.5-1.5,1.49Zm1.64,2-.14.13-.13-.13.13-.13Zm0,4-.14.13-.13-.13.13-.13Zm-.32.31-1.49,1.5-.41-.41-.41.41-1.5-1.5.31-.31-.31-.31,1.5-1.5.41.41.41-.41,1.49,1.5-.31.31Zm.32,3.66-.14.13-.13-.13.13-.13Zm-.32.31-1.49,1.5-.41-.41-.41.41-1.5-1.5.31-.31-.31-.31,1.5-1.5.41.41.41-.41,1.49,1.5-.31.31Zm.32,3.66-.14.13-.13-.13.13-.13Zm-.32.31-1.49,1.5-.41-.41-.41.41-1.5-1.5.31-.31-.31-.31,1.5-1.5.41.41.41-.41,1.49,1.5-.31.31Zm.32,3.66-.14.13-.13-.13.13-.14Zm-.32.31-1.49,1.5-.41-.41-.41.41-1.5-1.5.31-.31-.31-.31,1.5-1.5.41.41.41-.41,1.49,1.5-.31.31Zm.32,3.66-.14.13-.13-.13.13-.14Zm-.32.31L146,288l-.41-.41-.41.41-1.5-1.5.31-.31-.31-.31,1.5-1.5.41.41.41-.41,1.49,1.5-.31.31Zm.32,3.66-.14.13-.13-.13.13-.14Zm-.32.31L146,292l-.41-.41-.41.41-1.5-1.5.31-.31-.31-.31,1.5-1.5.41.41.41-.41,1.49,1.5-.31.31Zm.32,3.66-.14.13-.13-.13.13-.14Zm-.32.31L146,296l-.41-.41-.41.41-1.5-1.5.31-.31-.31-.31,1.5-1.5.41.41.41-.41,1.49,1.5-.31.31Zm.18.17,1.5,1.5-1.5,1.5-1.5-1.5Zm-1.85,1.5-.23.24-.24-.24.24-.23Zm-4.4-.58L141,296l-1.5-1.5.31-.31-.31-.31,1.5-1.5.41.41.41-.41,1.5,1.5-.31.31.31.31-1.5,1.5Zm.23.58-.23.24-.24-.24.24-.23Zm-4.4-.58-.41.41-1.5-1.5.31-.31-.31-.31,1.5-1.5.41.41.41-.41,1.5,1.5-.31.31.31.31-1.5,1.5Zm.23.58-.23.24-.23-.24.23-.23Zm-4.4-.58-.41.41-1.5-1.5.31-.31-.31-.31,1.5-1.5.41.41.41-.41,1.5,1.5-.31.31.31.31-1.5,1.5Zm.23.58-.23.24-.23-.24.23-.23Zm-4.4-.58-.41.41-1.5-1.5.31-.31-.31-.31,1.5-1.5.41.41.41-.41,1.5,1.5-.31.31.31.31-1.5,1.5Zm.23.58-.23.24-.23-.24.23-.23Zm-4.4-.58-.41.41-1.5-1.5.31-.31-.31-.31,1.5-1.5.41.41.41-.41,1.5,1.5-.31.31.31.31-1.5,1.5Zm.23.58-.23.24-.23-.24.23-.23Zm-4.4-.58-.41.41-1.5-1.5.31-.31-.31-.31,1.5-1.5.41.41.41-.41,1.5,1.5-.31.31.31.31-1.5,1.5Zm.23.58-.23.24-.23-.24.23-.23Zm-.82,0-1.49,1.5-1.5-1.5,1.5-1.5Zm-1.63-2,.14-.14.13.14-.13.13Zm0-4,.14-.14.13.14-.13.13Zm.31-.31,1.5-1.5.41.41.41-.41,1.5,1.5-.31.31.31.31-1.5,1.5-.41-.41-.41.41-1.5-1.5.31-.31Zm-.31-3.66.14-.14.13.14-.13.13Zm.31-.31,1.5-1.5.41.41.41-.41,1.5,1.5-.31.31.31.31-1.5,1.5-.41-.41-.41.41-1.5-1.5.31-.31Zm-.31-3.66.14-.14.13.14-.13.13Zm.31-.31,1.5-1.5.41.41.41-.41,1.5,1.5-.31.31.31.31-1.5,1.5-.41-.41-.41.41-1.5-1.5.31-.31Zm-.31-3.66.14-.13.13.13-.13.13Zm.31-.31,1.5-1.5.41.41.41-.41,1.5,1.5-.31.31.31.31-1.5,1.5-.41-.41-.41.41-1.5-1.5.31-.31Zm-.31-3.66.14-.13.13.13-.13.13Zm.31-.31,1.5-1.5.41.41.41-.41,1.5,1.5-.31.31.31.31-1.5,1.5-.41-.41-.41.41-1.5-1.5.31-.31Zm-.31-3.66.14-.13.13.13-.13.13Zm.31-.31,1.5-1.5.41.41.41-.41,1.5,1.5-.31.31.31.31-1.5,1.5-.41-.41-.41.41-1.5-1.5.31-.31Zm-.17-.18-1.5-1.5,1.5-1.49,1.49,1.49Zm1.85-1.5.23-.23.23.23-.23.24Zm4.4.59.41-.41,1.5,1.5-.31.31.31.31-1.5,1.5-.41-.41-.41.41-1.5-1.5.31-.31-.31-.31,1.5-1.5Zm-.23-.59.23-.23.23.23-.23.24Zm4.4.59.41-.41,1.5,1.5-.31.31.31.31-1.5,1.5-.41-.41-.41.41-1.5-1.5.31-.31L127,270l1.5-1.5Zm-.23-.59.23-.23.23.23-.23.24Zm4.4.59.41-.41L135,270l-.31.31.31.31-1.5,1.5-.41-.41-.41.41-1.5-1.5.31-.31-.31-.31,1.5-1.5Zm-.23-.59.23-.23.23.23-.23.24Zm4.4.59.41-.41,1.5,1.5-.31.31.31.31-1.5,1.5-.41-.41-.41.41-1.5-1.5.31-.31-.31-.31,1.5-1.5Zm-.23-.59.23-.23.23.23-.23.24Zm4.4.59.41-.41,1.5,1.5-.31.31.31.31-1.5,1.5-.41-.41-.41.41-1.5-1.5.31-.31-.31-.31,1.5-1.5Zm-.24-.59.24-.23.23.23-.23.24Zm.82,0,1.5-1.49,1.5,1.49-1.5,1.5Zm1.64,2-.14.13-.13-.13.13-.13Zm0,4-.14.13-.13-.13.13-.13Zm-.31.31-1.5,1.5-.41-.41-.41.41-1.5-1.5.31-.31-.31-.31,1.5-1.5.41.41.41-.41,1.5,1.5-.31.31Zm.31,3.66-.14.13-.13-.13.13-.13Zm-.31.31-1.5,1.5-.41-.41-.41.41-1.5-1.5.31-.31-.31-.31,1.5-1.5.41.41.41-.41,1.5,1.5-.31.31Zm.31,3.66-.14.13-.13-.13.13-.14Zm-.31.31-1.5,1.5-.41-.41-.41.41-1.5-1.5.31-.31-.31-.31,1.5-1.5.41.41.41-.41,1.5,1.5-.31.31Zm.31,3.66-.14.13-.13-.13.13-.14Zm-.31.31-1.5,1.5-.41-.41L141,288l-1.5-1.5.31-.31-.31-.31,1.5-1.5.41.41.41-.41,1.5,1.5-.31.31Zm.31,3.66-.14.13-.13-.13.13-.14Zm-.31.31-1.5,1.5-.41-.41L141,292l-1.5-1.5.31-.31-.31-.31,1.5-1.5.41.41.41-.41,1.5,1.5-.31.31Zm.17.18,1.5,1.49-1.5,1.5-1.5-1.5Zm-1.85,1.49-.23.24-.24-.24.24-.23Zm-4.4-.58-.41.41-1.5-1.5.31-.31-.31-.31,1.5-1.5.41.41.41-.41,1.5,1.5-.31.31.31.31-1.5,1.5Zm.23.58-.23.24-.23-.24.23-.23Zm-4.4-.58-.41.41-1.5-1.5.31-.31-.31-.31,1.5-1.5.41.41.41-.41,1.5,1.5-.31.31.31.31-1.5,1.5Zm.23.58-.23.24-.23-.24.23-.23Zm-4.4-.58-.41.41-1.5-1.5.31-.31-.31-.31,1.5-1.5.41.41.41-.41,1.5,1.5-.31.31.31.31-1.5,1.5Zm.23.58-.23.24-.23-.24.23-.23Zm-4.4-.58-.41.41-1.5-1.5.31-.31-.31-.31,1.5-1.5.41.41.41-.41,1.5,1.5-.31.31.31.31-1.5,1.5Zm.23.58-.23.24-.23-.24.23-.23Zm-.82,0-1.49,1.5-1.5-1.5,1.5-1.49Zm-1.63-2,.14-.14.13.14-.13.13Zm0-4,.14-.14.13.14-.13.13Zm.31-.31,1.5-1.5.41.41.41-.41,1.5,1.5-.31.31.31.31-1.5,1.5-.41-.41-.41.41-1.5-1.5.31-.31Zm-.31-3.66.14-.14.13.14-.13.13Zm.31-.31,1.5-1.5.41.41.41-.41,1.5,1.5-.31.31.31.31-1.5,1.5-.41-.41-.41.41-1.5-1.5.31-.31Zm-.31-3.66.14-.13.13.13-.13.13Zm.31-.31,1.5-1.5.41.41.41-.41,1.5,1.5-.31.31.31.31-1.5,1.5-.41-.41-.41.41-1.5-1.5.31-.31Zm-.31-3.66.14-.13.13.13-.13.13Zm.31-.31,1.5-1.5.41.41.41-.41,1.5,1.5-.31.31.31.31-1.5,1.5-.41-.41-.41.41-1.5-1.5.31-.31Zm-.17-.18-1.5-1.5,1.5-1.49,1.49,1.49Zm1.85-1.5.23-.23.23.23-.23.24Zm4.4.59.41-.41,1.5,1.5-.31.31.31.31-1.5,1.5-.41-.41-.41.41-1.5-1.5.31-.31L127,274l1.5-1.5Zm-.23-.59.23-.23.23.23-.23.24Zm4.4.59.41-.41L135,274l-.31.31.31.31-1.5,1.5-.41-.41-.41.41-1.5-1.5.31-.31-.31-.31,1.5-1.5Zm-.23-.59.23-.23.23.23-.23.24Zm4.4.59.41-.41,1.5,1.5-.31.31.31.31-1.5,1.5-.41-.41-.41.41-1.5-1.5.31-.31-.31-.31,1.5-1.5Zm-.23-.59.23-.23.23.23-.23.24Zm.82,0,1.49-1.49,1.5,1.49-1.5,1.5Zm1.63,2-.14.13-.13-.13.13-.13Zm0,4-.14.13-.13-.13.13-.13Zm-.31.31-1.5,1.5-.41-.41-.41.41-1.5-1.5.31-.31-.31-.31,1.5-1.5.41.41.41-.41,1.5,1.5-.31.31Zm.31,3.66-.14.13-.13-.13.13-.13Zm-.31.31-1.5,1.5-.41-.41-.41.41-1.5-1.5.31-.31-.31-.31,1.5-1.5.41.41.41-.41,1.5,1.5-.31.31Zm.31,3.66-.14.13-.13-.13.13-.14Zm-.31.31-1.5,1.5-.41-.41-.41.41-1.5-1.5.31-.31-.31-.31,1.5-1.5.41.41.41-.41,1.5,1.5-.31.31Zm.17.18,1.5,1.49-1.5,1.5-1.49-1.5Zm-1.85,1.49-.23.24-.23-.24.23-.23Zm-4.4-.58-.41.41-1.5-1.5.31-.31-.31-.31,1.5-1.5.41.41.41-.41,1.5,1.5-.31.31.31.31-1.5,1.5Zm.23.58-.23.24-.23-.24L133,288Zm-4.4-.58-.41.41-1.5-1.5.31-.31-.31-.31,1.5-1.5.41.41.41-.41,1.5,1.5-.31.31.31.31-1.5,1.5Zm.23.58-.23.24-.23-.24.23-.23Zm-.82,0-1.5,1.5-1.49-1.5,1.49-1.49Zm-1.63-2,.13-.14.14.14-.14.13Zm0-4,.13-.14.14.14-.14.13Zm.31-.31,1.5-1.5.41.41.41-.41,1.5,1.5-.31.31.31.31-1.5,1.5-.41-.41-.41.41-1.5-1.5.31-.31Zm-.31-3.66.13-.13.14.13-.14.13ZM127,278l1.5-1.5.41.41.41-.41,1.5,1.5-.31.31.31.31-1.5,1.5-.41-.41-.41.41-1.5-1.5.31-.31Zm-.18-.18-1.49-1.5,1.49-1.49,1.5,1.49Zm1.86-1.5.23-.23.23.23-.23.24Zm4.4.59.41-.41L135,278l-.31.31.31.31-1.5,1.5-.41-.41-.41.41-1.5-1.5.31-.31-.31-.31,1.5-1.5Zm-.23-.59.23-.23.23.23-.23.24Zm.82,0,1.49-1.49,1.5,1.49-1.5,1.5Zm1.63,2-.14.13-.13-.13.13-.13Zm0,4-.14.13-.13-.13.13-.13Zm-.31.31-1.5,1.5-.41-.41-.41.41-1.5-1.5.31-.31-.31-.31,1.5-1.5.41.41.41-.41,1.5,1.5-.31.31Zm.17.18,1.5,1.49-1.5,1.5-1.49-1.5Zm-1.85,1.49-.23.24-.23-.24L133,284Zm-.82,0-1.5,1.5-1.49-1.5,1.49-1.49Zm-1.63-2,.13-.14.14.14-.14.13Zm.13-.49-1.49-1.5,1.49-1.49,1.5,1.49Zm1.86-1.5L133,280l.23.23-.23.24Zm.82,0,1.49-1.49,1.5,1.49-1.5,1.5Zm-2.81-2,.13-.13.14.13-.14.13Zm.13-.49-1.49-1.5,1.49-1.49,1.5,1.49Zm-1.85,2.47-.23.24-.23-.24.23-.23Zm-.82,0-1.5,1.5-1.49-1.5,1.49-1.49Zm.82,4-.23.24-.23-.24.23-.23Zm-.82,0-1.5,1.5-1.49-1.5,1.49-1.49Zm2.81,2-.14.13-.13-.13.13-.14Zm-.14.49,1.5,1.49-1.5,1.5-1.49-1.5Zm4.31-.49-.14.13-.13-.13.13-.14Zm-.14.49,1.5,1.49-1.5,1.5-1.49-1.5Zm1.86-2.48.23-.23.23.23-.23.24Zm.82,0,1.49-1.49,1.5,1.49-1.5,1.5Zm-.82-4,.23-.23.23.23-.23.24Zm.82,0,1.49-1.49,1.5,1.49-1.5,1.5Zm-.82-4,.23-.23.23.23-.23.24Zm.82,0,1.49-1.49,1.5,1.49-1.5,1.5Zm-2.81-2,.13-.13.14.13-.14.13Zm.13-.49-1.49-1.5,1.49-1.49,1.5,1.49Zm-4.3.49.13-.13.14.13-.14.13Zm.13-.49-1.49-1.5,1.49-1.49,1.5,1.49Zm-4.3.49.13-.13.14.13-.14.13Zm.13-.49-1.49-1.5,1.49-1.49,1.5,1.49Zm-1.85,2.47-.23.24-.23-.24.23-.23Zm-.82,0-1.49,1.5-1.5-1.5,1.5-1.49Zm.82,4-.23.24-.23-.24.23-.23Zm-.82,0-1.49,1.5-1.5-1.5,1.5-1.49Zm.82,4-.23.24-.23-.24.23-.23Zm-.82,0-1.49,1.5-1.5-1.5,1.5-1.49Zm.82,4-.23.24-.23-.24.23-.23Zm-.82,0-1.49,1.5-1.5-1.5,1.5-1.49Zm2.81,2-.14.13-.13-.13.13-.14Zm-.14.49,1.5,1.49-1.5,1.5-1.49-1.5Zm4.31-.49-.14.13-.13-.13L131,290Zm-.14.49,1.5,1.49-1.5,1.5-1.49-1.5Zm4.31-.49-.14.13-.13-.13.13-.14Zm-.14.48,1.5,1.5-1.5,1.5-1.49-1.5Zm4.31-.48-.14.13-.13-.13.13-.14Zm-.14.48,1.5,1.5-1.5,1.5-1.49-1.5Zm1.85-2.47.24-.23.23.23-.23.24Zm.82,0,1.5-1.49,1.5,1.49-1.5,1.5Zm-.82-4,.24-.23.23.23-.23.24Zm.82,0,1.5-1.49,1.5,1.49-1.5,1.5Zm-.82-4,.24-.23.23.23-.23.24Zm.82,0,1.5-1.49,1.5,1.49-1.5,1.5Zm-.82-4,.24-.23.23.23-.23.24Zm.82,0,1.5-1.49,1.5,1.49-1.5,1.5Zm-.82-4,.24-.23.23.23-.23.24Zm.82,0,1.5-1.49,1.5,1.49-1.5,1.5Zm-2.8-2,.13-.13.14.13-.14.13Zm.13-.49-1.49-1.5,1.49-1.49,1.5,1.49Zm-4.3.49.13-.13.14.13-.14.13Zm.13-.49-1.49-1.5,1.49-1.49,1.5,1.49Zm-4.3.49.13-.13.14.13-.14.13Zm.13-.49-1.49-1.5,1.49-1.49,1.5,1.49Zm-4.3.49.13-.13.14.13-.14.13Zm.13-.49-1.49-1.5,1.49-1.49,1.5,1.49Zm-4.3.49.14-.13.13.13-.13.13Zm.14-.49-1.5-1.5,1.5-1.49,1.49,1.49Zm-1.86,2.47-.23.24-.23-.24.23-.23Zm-.82,0-1.49,1.5-1.5-1.5,1.5-1.49Zm.82,4-.23.24-.23-.24.23-.23Zm-.82,0-1.49,1.5-1.5-1.5,1.5-1.49Zm.82,4-.23.24-.23-.24.23-.23Zm-.82,0-1.49,1.5-1.5-1.5,1.5-1.49Zm.82,4-.23.24-.23-.24.23-.23Zm-.82,0-1.49,1.5-1.5-1.5,1.5-1.49Zm.82,4-.23.24-.23-.24.23-.23Zm-.82,0-1.49,1.5-1.5-1.5,1.5-1.49Zm.82,4-.23.24-.23-.24.23-.23Zm-.82,0-1.49,1.5-1.5-1.5,1.5-1.49Zm2.81,2-.13.13-.14-.13.14-.14Zm-.13.48,1.49,1.5-1.49,1.5-1.5-1.5Zm4.3-.48-.14.13-.13-.13.13-.14Zm-.14.48,1.5,1.5-1.5,1.5-1.49-1.5Zm4.31-.48-.14.13-.13-.13L131,294Zm-.14.48,1.5,1.5-1.5,1.5-1.49-1.5Zm4.31-.48-.14.13-.13-.13.13-.14Zm-.14.48,1.5,1.5-1.5,1.5-1.49-1.5Zm4.31-.48-.14.13-.13-.13.13-.14Zm-.14.48,1.5,1.5-1.5,1.5-1.49-1.5Zm4.31-.48-.14.13-.13-.13.13-.14Zm-.14.48,1.5,1.5-1.5,1.5-1.5-1.5Zm1.85-2.47.24-.23.23.23-.23.24Zm.82,0,1.5-1.49,1.5,1.49-1.5,1.5Zm-.82-4,.24-.23.23.23-.23.24Zm.82,0,1.5-1.49,1.5,1.49-1.5,1.5Zm-.82-4,.24-.23.23.23-.23.24Zm.82,0,1.5-1.49,1.5,1.49-1.5,1.5Zm-.82-4,.24-.23.23.23-.23.24Zm.82,0,1.5-1.49,1.5,1.49-1.5,1.5Zm-.82-4,.24-.23.23.23-.23.24Zm.82,0,1.5-1.49,1.5,1.49-1.5,1.5Zm-.82-4,.24-.23.23.23-.23.24Zm.82,0,1.5-1.49,1.5,1.49-1.5,1.5Zm-.82-4,.24-.23.23.23-.23.24Zm.82,0,1.5-1.49,1.5,1.49-1.5,1.5Zm-2.8-2,.13-.13.14.13-.14.13Zm.13-.49-1.5-1.49,1.5-1.5,1.5,1.5Zm-4.3.49.13-.13.14.13-.14.13Zm.13-.49-1.49-1.49,1.49-1.5,1.5,1.5Zm-4.3.49.13-.13.14.13-.14.13Zm.13-.49-1.49-1.49,1.49-1.5,1.5,1.5Zm-4.3.49.13-.13.14.13-.14.13Zm.13-.49-1.49-1.49,1.49-1.5,1.5,1.5Zm-4.3.49.13-.13.14.13-.14.13Zm.13-.49-1.49-1.49,1.49-1.5,1.5,1.5Zm-4.3.49.14-.13.13.13-.13.13Zm.14-.49-1.5-1.49,1.5-1.5,1.49,1.5Zm-4.31.49.14-.13.13.13-.13.13Zm.14-.49-1.5-1.49,1.5-1.5,1.49,1.5Zm-1.86,2.47-.23.24-.23-.24.23-.23Zm-.82,0-1.49,1.5-1.5-1.5,1.5-1.49Zm.82,4-.23.24-.23-.24.23-.23Zm-.82,0-1.49,1.5-1.5-1.5,1.5-1.49Zm.82,4-.23.24-.23-.24.23-.23Zm-.82,0-1.49,1.5-1.5-1.5,1.5-1.49Zm.82,4-.23.24-.23-.24.23-.23Zm-.82,0-1.49,1.5-1.5-1.5,1.5-1.49Zm.82,4-.23.24-.23-.24.23-.23Zm-.82,0-1.49,1.5-1.5-1.5,1.5-1.49Zm.82,4-.23.24-.23-.24.23-.23Zm-.82,0-1.49,1.5-1.5-1.5,1.5-1.49Zm.82,4-.23.24-.23-.24.23-.23Zm-.82,0-1.49,1.5-1.5-1.5,1.5-1.49Zm.82,4-.23.24-.23-.24.23-.23Zm-.82,0-1.49,1.5-1.5-1.5,1.5-1.5Zm2.81,2-.13.13-.14-.13.14-.14Zm-.13.48,1.49,1.5-1.49,1.5-1.5-1.5Zm4.3-.48-.13.13-.14-.13.14-.14Zm-.13.48,1.49,1.5-1.49,1.5-1.5-1.5Zm4.3-.48-.14.13-.13-.13.13-.14Zm-.14.48,1.5,1.5-1.5,1.5-1.49-1.5Zm4.31-.48-.14.13-.13-.13L131,298Zm-.14.48,1.5,1.5-1.5,1.5-1.49-1.5Zm4.31-.48-.14.13-.13-.13.13-.14Zm-.14.48,1.5,1.5-1.5,1.5-1.49-1.5Zm4.31-.48-.14.13-.13-.13.13-.14Zm-.14.48,1.5,1.5-1.5,1.5-1.49-1.5Zm4.31-.48-.14.13-.13-.13.13-.14Zm-.14.48,1.5,1.5-1.5,1.5-1.5-1.5Zm4.31-.48-.14.13-.13-.13.13-.14Zm-.14.48,1.5,1.5-1.5,1.5-1.5-1.5Zm1.85-2.47.24-.23.23.23-.23.24Zm.82,0,1.5-1.5,1.5,1.5-1.5,1.5Zm-.82-4,.24-.23.23.23-.23.24Zm.82,0,1.5-1.49,1.5,1.49-1.5,1.5Zm-.82-4,.24-.23.23.23-.23.24Zm.82,0,1.5-1.49,1.5,1.49-1.5,1.5Zm-.82-4,.24-.23.23.23-.23.24Zm.82,0,1.5-1.49,1.5,1.49-1.5,1.5Zm-.82-4,.24-.23.23.23-.23.24Zm.82,0,1.5-1.49,1.5,1.49-1.5,1.5Zm-.82-4,.24-.23.23.23-.23.24Zm.82,0,1.5-1.49,1.5,1.49-1.5,1.5Zm-.82-4,.24-.23.23.23-.23.24Zm.82,0,1.5-1.49,1.5,1.49-1.5,1.5Zm-.82-4,.24-.23.23.23-.23.24Zm.82,0,1.5-1.49,1.5,1.49-1.5,1.5Zm-.82-4,.24-.24.23.24-.23.23Zm.82,0,1.5-1.5,1.5,1.5-1.5,1.49Zm1.37-2,.13-.13.13.13-.13.13Zm-1.95-2.22,1.9,1.91-.31.31.31.31-1.49,1.5-.41-.41-.41.41-1.5-1.5.31-.31-.31-.31Zm-2.22,2.22.13-.13.14.13-.14.13Zm-1.95-2.22,1.9,1.91-.31.31.31.31L146,264.2l-.41-.41-.41.41-1.5-1.5.31-.31-.31-.31Zm-2.22,2.22.13-.13.14.13-.14.13Zm-2-2.22,1.91,1.91-.31.31.31.31-1.5,1.5-.41-.41-.41.41-1.5-1.5.31-.31-.31-.31Zm-2.22,2.22.13-.13.14.13-.14.13Zm-1.95-2.22,1.91,1.91-.31.31.31.31-1.5,1.5-.41-.41-.41.41-1.5-1.5.31-.31-.31-.31ZM135,262.39l.13-.13.14.13-.14.13Zm-2-2.22,1.91,1.91-.31.31.31.31-1.5,1.5-.41-.41-.41.41-1.5-1.5.31-.31-.31-.31Zm-2.22,2.22.13-.13.14.13-.14.13Zm-1.95-2.22,1.91,1.91-.31.31.31.31-1.5,1.5-.41-.41-.41.41-1.5-1.5.31-.31-.31-.31Zm-2.22,2.22.13-.13.14.13-.14.13Zm-2-2.22,1.91,1.91-.31.31.31.31-1.5,1.5-.41-.41-.41.41-1.5-1.5.31-.31-.31-.31Zm-2.22,2.22.14-.13.13.13-.13.13Zm-2-2.22,1.91,1.91-.31.31.31.31-1.5,1.5-.41-.41-.41.41-1.5-1.5.31-.31-.31-.31Zm-2.22,2.22.14-.13.13.13-.13.13Zm-2-2.22,1.91,1.91-.31.31.31.31-1.5,1.5-.41-.41-.41.41-1.5-1.5.31-.31-.31-.31Zm-2.22,2.22.14-.13.13.13-.13.13Zm-4.17,0,2.22-2.22,1.91,1.91-.31.31.31.31-1.5,1.5-.41-.41-.41.41Zm2.46,2-.24.23-.23-.23.23-.24Zm-2.46,2,1.81-1.81.41.41.41-.41,1.5,1.5-.31.31.31.31-1.5,1.5-.41-.41-.41.41Zm2.46,2-.24.24-.23-.24.23-.23Zm-2.46,2,1.81-1.81.41.41.41-.41,1.5,1.5-.31.31.31.31-1.5,1.5-.41-.41-.41.41Zm2.46,2-.24.24-.23-.24.23-.23Zm-2.46,2,1.81-1.81.41.41.41-.41,1.5,1.5-.31.31.31.31-1.5,1.5-.41-.41-.41.41Zm2.46,2-.24.24-.23-.24.23-.23Zm-2.46,2,1.81-1.81.41.41.41-.41,1.5,1.5-.31.31.31.31-1.5,1.5-.41-.41-.41.41Zm2.46,2-.24.24-.23-.24.23-.23Zm-2.46,2,1.81-1.81.41.41.41-.41,1.5,1.5-.31.31.31.31-1.5,1.5-.41-.41-.41.41Zm2.46,2-.24.24-.23-.24.23-.23Zm-2.46,2,1.81-1.81.41.41.41-.41,1.5,1.5-.31.31.31.31-1.5,1.5-.41-.41-.41.41Zm2.46,2-.24.24-.23-.24.23-.23Zm-2.46,2,1.81-1.81.41.41.41-.41,1.5,1.5-.31.31.31.31-1.5,1.5-.41-.41-.41.41Zm2.46,2-.24.24-.23-.24.23-.23Zm-2.46,2,1.81-1.81.41.41.41-.41,1.5,1.5-.31.31.31.31-1.5,1.5-.41-.41-.41.41Zm2.46,2-.24.24-.23-.24.23-.23Zm-2.46,2,1.81-1.81.41.41.41-.41,1.5,1.5-.31.31.31.31-1.5,1.5-.41-.41-.41.41Zm2.46,2-.24.24-.23-.24.23-.23Zm-.24,4.2L110,302.09l1.81-1.81.41.41.41-.41,1.5,1.5-.31.31.31.31Zm2.22-2.21-.13.13-.14-.13.14-.14Zm2,2.21-1.91-1.9.31-.31-.31-.31,1.5-1.5.41.41.41-.41,1.5,1.5-.31.31.31.31Zm2.22-2.21-.13.13-.14-.13.14-.14Zm2,2.21-1.91-1.9.31-.31-.31-.31,1.5-1.5.41.41.41-.41,1.5,1.5-.31.31.31.31Zm2.22-2.21-.13.13-.14-.13.14-.14Zm2,2.21-1.91-1.9.31-.31-.31-.31,1.5-1.5.41.41.41-.41,1.5,1.5-.31.31.31.31Zm2.22-2.21-.14.13-.13-.13.13-.14Zm2,2.21L127,302.4l.31-.31-.31-.31,1.5-1.5.41.41.41-.41,1.5,1.5-.31.31.31.31Zm2.22-2.21-.14.13-.13-.13L131,302ZM133,304.3l-1.91-1.9.31-.31-.31-.31,1.5-1.5.41.41.41-.41,1.5,1.5-.31.31.31.31Zm2.22-2.21-.14.13-.13-.13.13-.14Zm2,2.21-1.91-1.9.31-.31-.31-.31,1.5-1.5.41.41.41-.41,1.5,1.5-.31.31.31.31Zm2.22-2.21-.14.13-.13-.13.13-.14Zm1.95,2.21-1.91-1.9.31-.31-.31-.31,1.5-1.5.41.41.41-.41,1.5,1.5-.31.31.31.31Zm2.22-2.21-.14.13-.13-.13.13-.14Zm2,2.21-1.91-1.9.31-.31-.31-.31,1.5-1.5.41.41.41-.41,1.49,1.5-.31.31.31.31Zm2.22-2.21-.14.13-.13-.13.13-.14Zm1.95,2.21-1.91-1.9.31-.31-.31-.31,1.5-1.5.41.41.41-.41,1.49,1.5-.31.31.31.31Zm2.21-2.21-.13.13-.13-.13.13-.14Zm4.17,0-2.21,2.21L152,302.4l.31-.31-.31-.31,1.5-1.5.41.41.41-.41Zm-2.45-2,.24-.23.23.23-.23.24Zm2.45-2-1.8,1.81-.41-.41-.41.41-1.5-1.5.31-.31-.31-.31,1.5-1.5.41.41.41-.41Zm-2.45-2,.24-.23.23.23-.23.24Zm2.45-2L154.3,296l-.41-.41-.41.41-1.5-1.5.31-.31-.31-.31,1.5-1.5.41.41.41-.41Zm-2.45-2,.24-.23.23.23-.23.24Zm2.45-2L154.3,292l-.41-.41-.41.41-1.5-1.5.31-.31-.31-.31,1.5-1.5.41.41.41-.41Zm-2.45-2,.24-.23.23.23-.23.24Zm2.45-2L154.3,288l-.41-.41-.41.41-1.5-1.5.31-.31-.31-.31,1.5-1.5.41.41.41-.41Zm-2.45-2,.24-.23.23.23-.23.24Zm2.45-2-1.8,1.81-.41-.41-.41.41-1.5-1.5.31-.31-.31-.31,1.5-1.5.41.41.41-.41Zm-2.45-2,.24-.23.23.23-.23.24Zm2.45-2-1.8,1.81-.41-.41-.41.41-1.5-1.5.31-.31L152,278l1.5-1.5.41.41.41-.41Zm-2.45-2,.24-.23.23.23-.23.24Zm2.45-2-1.8,1.81-.41-.41-.41.41-1.5-1.5.31-.31L152,274l1.5-1.5.41.41.41-.41Zm-2.45-2,.24-.23.23.23-.23.24Zm2.45-2-1.8,1.81-.41-.41-.41.41-1.5-1.5.31-.31L152,270l1.5-1.5.41.41.41-.41Zm-2.45-2,.24-.23.23.23-.23.24Zm.24-.58-.41.41-1.5-1.5.31-.31-.31-.31,1.5-1.5.41.41.41-.41,1.8,1.81-1.8,1.81Z" style="fill:#f7f3e4"/></g><path d="M140.63,165l-2.29-9.57s33.32-22.07,51.27-18.33,41,45.67,43.82,59.54a49.54,49.54,0,0,1,19.84-4s17.38,14.81,15.43,27.9a46.29,46.29,0,0,1-31.89,14.07c-20.29.59-53.89-33.71-52-79.39C184.77,155.19,181.1,164,140.63,165Z" style="fill:#00b7b9"/><path d="M115.34,129.55a4.18,4.18,0,0,1,1-.7,2.9,2.9,0,0,1,3.47,1.06c2.41,2.79,3.79,6.23,5.4,9.46a34.56,34.56,0,0,0,5.94,9,8.73,8.73,0,0,0,4.32,2.54,7.6,7.6,0,0,1,4.3,2.36,3.82,3.82,0,0,1,.45,3.07,9.19,9.19,0,0,0-.07,1.66,51,51,0,0,1,1.83,5.74.4.4,0,0,1-.26.6c-3.33,1.44-6.82,2.79-10.5,2.79s-7.64-1.61-9.45-4.82-1.13-7.16-1.94-10.75a27.41,27.41,0,0,0-3.33-7.37,24.44,24.44,0,0,1-3.16-7.44,9.73,9.73,0,0,1,.55-5.32A5.45,5.45,0,0,1,115.34,129.55Z" style="fill:#171114"/><path d="M148.15,163.19l-2.28-9.57s33.47-17.25,51.42-13.51,33.29,42.61,36.14,56.48a49.54,49.54,0,0,1,19.84-4s17.38,14.81,15.43,27.9a46.29,46.29,0,0,1-31.89,14.07c-20.29.59-46.21-30.65-44.35-76.33C192.46,158.25,188.63,162.2,148.15,163.19Z" style="fill:#6bd1d8"/><path d="M228.05,217c-5.75-1.5-11.12-4.2-14.94-8.57-13-14.78-14.71-36.21-15.48-54.91-.07-1.65.23-2.62-1.31-2-15.71,5.85-32,8.59-48.7,9.45l.53,2.23c40.48-1,44.31-4.94,44.31-4.94-1.86,45.68,24.06,76.92,44.35,76.33a46.29,46.29,0,0,0,31.89-14.07,16.63,16.63,0,0,0-.58-7c-8.46,1.87-16.78,4.81-25.51,5.08A52.2,52.2,0,0,1,228.05,217Z" style="fill:#00c5cb"/><path d="M121.54,128.49a4.89,4.89,0,0,1,1-.69,2.9,2.9,0,0,1,3.48,1.06c2.41,2.79,3.79,6.22,5.4,9.46a34.78,34.78,0,0,0,5.93,9.05,8.8,8.8,0,0,0,4.33,2.54,7.58,7.58,0,0,1,4.3,2.35,3.79,3.79,0,0,1,.44,3.08,10.08,10.08,0,0,0-.06,1.65,51.84,51.84,0,0,1,1.83,5.75.53.53,0,0,1,0,.39.45.45,0,0,1-.27.2c-3.33,1.45-6.82,2.8-10.5,2.8s-7.64-1.62-9.45-4.82-1.13-7.17-1.94-10.75a27.47,27.47,0,0,0-3.33-7.38,24.29,24.29,0,0,1-3.16-7.43,9.55,9.55,0,0,1,.55-5.32A5.58,5.58,0,0,1,121.54,128.49Z" style="fill:#1f181b"/><path d="M321.13,127.22a7.77,7.77,0,0,0-.35-1.59,3.44,3.44,0,0,1,3.29-4.35c4.61,0,11.2-.07,12.44-.34,1.68-.38,3-1.69,4.49-2.45a16.49,16.49,0,0,1,5.89-1.78,1.41,1.41,0,0,1,1.16.25c.14.14.22.33.39.43a1,1,0,0,0,.44.1c1.69.1,4.22.34,4.59,2.41.66,3.79.34,7.83.43,11.66.09,3.67.68,7.23,1,10.86a22.1,22.1,0,0,1-.31,7,13.42,13.42,0,0,1-3.58,6.12c-.62.67-1.28,1.29-1.93,1.92s-1,1.25-1.66,1.56-1.43.34-1.77,1c-.25.5.23,1.36.2,2a4.94,4.94,0,0,1-.72,2.18,7.14,7.14,0,0,1-6.52,3.33,5.23,5.23,0,0,1-3.8-1.95,4,4,0,0,1-.72-2.35c0-.87-.11-.78-1-.94-1.12-.19-2.26-.43-3.39-.52a45.82,45.82,0,0,0-8,0,8.46,8.46,0,0,0-3.13,1.31,28.44,28.44,0,0,1-5.67,2.59,3.07,3.07,0,0,1-2.77-.36c-1.21-1-1.73-3.46-2.26-4.88s-1.11-2.67-1.56-4h-.05c-.81.05-1.33-1.15-.44-1.48l.22-.09a1,1,0,0,1,1.3-.51c1.93-.74,3.85-1.52,5.75-2.32l.94-.46c-.19-.67-5.6-8.89-2.17-15.75C314.53,130.31,321.13,127.22,321.13,127.22Z" style="fill:#f6b69d"/><path d="M330.88,157.78H331a18.24,18.24,0,0,0,8.36-2.49c2.65-1.63,3.62-4.46,5-7,.26-.47,3.53-5,4.05-4.51a11.54,11.54,0,0,1-2.83-5.12,21,21,0,0,1-.35-8.24c.48-4.78.26-8.78-2.17-12.78a14.53,14.53,0,0,1,3.79-.89,1.41,1.41,0,0,1,1.16.25c.14.14.22.33.39.43a1,1,0,0,0,.44.1c1.69.1,4.22.34,4.59,2.41.66,3.79.34,7.83.43,11.66.09,3.67.68,7.23,1,10.86a22.1,22.1,0,0,1-.31,7,13.42,13.42,0,0,1-3.58,6.12c-.62.67-1.28,1.29-1.93,1.92s-1,1.25-1.66,1.56-1.43.34-1.77,1c-.25.5.23,1.36.2,2a4.94,4.94,0,0,1-.72,2.18,7.14,7.14,0,0,1-6.52,3.33,5.23,5.23,0,0,1-3.8-1.95,4,4,0,0,1-.72-2.35c0-.87-.11-.78-1-.94-1.12-.19-2.26-.43-3.39-.52a45.82,45.82,0,0,0-8,0,8.46,8.46,0,0,0-3.13,1.31,12.51,12.51,0,0,1-4.1,1.77c-.39.05-4.23,1.57-4,1.88a65.5,65.5,0,0,1-4.92-10.45c-.39-1.07.19-1.61,1.22-1.86A27.4,27.4,0,0,0,313,152l.94-.46c-.19-.67-5.6-8.89-2.17-15.75a14.33,14.33,0,0,1,1.49-2.32,10,10,0,0,0-1.43,4.24,23.39,23.39,0,0,0,.72,4.84,21,21,0,0,0,8,12.27A17.15,17.15,0,0,0,330.88,157.78Z" style="fill:#eda68f"/><path d="M245.27,193.23a41.55,41.55,0,0,1,7.35,23.8c-.05,14.27-1.57,15.72,4.72,14.85s23.73-10.39,35.91-22.59c17.22-17.24,26.73-41.63,24.69-47.51s-2.5-9.45-16.72-6.94-21.6,8.07-26.82,14.78-16.55,16.27-22.75,18.78S244,191,245.27,193.23Z" style="fill:#008e90"/><path d="M317.94,161.78a18.5,18.5,0,0,0-2.32-5.29c3.14,6.15-.72,15-4.5,20.66-6.18,9.21-12.43,19-19.66,27.44-6.64,7.74-16.65,13.6-25.83,17.87a13,13,0,0,1-4.37,1.57c-2.09.12-5.21-2.14-6-4.12-.86-2.14-.83-5.12-1.4-7.41a60.67,60.67,0,0,0-4.23-11.42c-.15-.48-.29-1-.46-1.44,0-.1-.2-.09-.19,0a.31.31,0,0,1,0,.1l-.08-.18h0A42.26,42.26,0,0,1,252.62,217c-.05,14.27-1.57,15.72,4.72,14.85s23.73-10.39,35.91-22.59C310.47,192.05,320,167.66,317.94,161.78Z" style="fill:#006d6d"/><path d="M325.65,229.86a1.35,1.35,0,0,0-.66-.58c-.48-.21,1.05-20.7.92-22.71a137.46,137.46,0,0,0-4.05-25.27c-.72-2.84-1.83-10.08-5.54-10.58-2.49-.34-4.34,2.58-5.72,4.16a18.82,18.82,0,0,1-1.63,1.71c-.41.37-1.51.91-1.69,1.41-.25.7.92,2.07,1.3,2.6,3.92,5.43,4.52,12.74,5.35,19.29.76,6,1.31,12,1.64,18.08.29,5.43.77,11.29-1.78,16.25-1.07,2.09-4.35,4.06-2.37,6.54a1.45,1.45,0,0,0,1.52.53,9.26,9.26,0,0,0,4.14-2.15c-.17.14.09,1.66.1,1.93a15.73,15.73,0,0,1,0,2.06,26.74,26.74,0,0,0,.16,4,1.9,1.9,0,0,0,.53,1.49,1.34,1.34,0,0,0,.76.24,4.85,4.85,0,0,0,2.12-.53c1.43-.6,3.25-1.21,4.31-2.43s2.47-1.87,3.22-3.38C330.27,238.44,327.52,233.2,325.65,229.86Z" style="fill:#f6b69d"/><path d="M319.9,166.9c-1.27-3.9-1.93-9.3-6.47-10.75-2.86-.91-6.6.28-8,3a6,6,0,0,0-.45,1.22.62.62,0,0,0-.07.19c-.5,2.65,0,5.35.11,8,.13,3.15.18,6.3.59,9.43.3,2.36,1,5,3.58,3.94l.29,0a43.9,43.9,0,0,0,9.09-1.67c1.68-.59,3.5-1.63,4-3.28C323.44,174.3,320.76,169.55,319.9,166.9Z" style="fill:#006d6d"/><path d="M367.78,125.75a6.84,6.84,0,0,0,4.22-7.21c-.31-5.93-5.7-5.9-10-4.11,1.52-6.64-8.35-12.5-14.9-9.46-3.75,1.73-8,5.79-8.07,10.2a7.22,7.22,0,0,0,1.84,4.86c1.07,1.29,3,2.46,3.38,4.26a2.08,2.08,0,0,1,0,.43l-.09.2c-2.49,5.06-4.51,9.29-.73,14.31-3.2,2.21-5.58,5.75-4,9.73.9,2.25,3.53,3.41-.51,6.33-.59.43-1.77.42-2.4.77-1.06.59-1.73,1-1.47,2.14,0,.24.08.37.22.42a.26.26,0,0,0,.3.15,10.09,10.09,0,0,1,4.56-.4c2,.49,4.16,2.08,4.26,4.32a9.39,9.39,0,0,0,0,1.76c.16.65,1.13.41,1.64.4.79,0,1.57,0,2.35,0,1.22,0,2.42.19,3.64.11a13.62,13.62,0,0,0,5.06-1.26,9,9,0,0,0,3.23-2.62c1.49-2,2.07-6.63.49-9.14,3.1-1,5.61-3.35,5.42-7.12a7.29,7.29,0,0,0-2.15-4.58,10.73,10.73,0,0,0,6.64-7.73A7.33,7.33,0,0,0,367.78,125.75Z" style="fill:#1f181b"/><path d="M57.75,134.86s0-.05,0,0c-4.15,5.28-6.63,14-4.19,20.59.11.29.64.28.6-.08C53.24,148.26,53.62,140.94,57.75,134.86Z" style="fill:#006d6d"/><path d="M61.29,147.24c-1.78.43-3.68,0-5.37.85a4,4,0,0,0-2.23,3.24c0,.19-.1.37-.14.55-.14.56.4.91.87.92a9.06,9.06,0,0,0,5.08-1.11c1.47-.95,1.87-2.32,2.28-3.93A.45.45,0,0,0,61.29,147.24Z" style="fill:#008e90"/><path d="M59.87,148.21a25.34,25.34,0,0,0-4,2c-.83.55-1.93,1-2.4,2a.35.35,0,1,0,.65.27c.34-.88,2.11-2,2.86-2.47.93-.61,1.92-1.14,2.89-1.67C59.92,148.23,59.9,148.2,59.87,148.21Z" style="fill:#006d6d"/><path d="M58.76,136.78a9.5,9.5,0,0,0-2.2.23,1.65,1.65,0,0,0-1,1.27c0,.07,0,.14-.07.22s.15.37.34.39a3.76,3.76,0,0,0,2.09-.34A2.33,2.33,0,0,0,59,137,.18.18,0,0,0,58.76,136.78Z" style="fill:#008e90"/><path d="M58.16,137.14a10.49,10.49,0,0,0-1.66.71c-.35.21-.8.37-1,.74a.14.14,0,1,0,.25.12,3.56,3.56,0,0,1,1.22-.94c.39-.22.81-.42,1.21-.61C58.18,137.15,58.18,137.14,58.16,137.14Z" style="fill:#006d6d"/><path d="M55.8,142.59a7.14,7.14,0,0,0-1.44.55,1.13,1.13,0,0,0-.42,1,.92.92,0,0,0,0,.16c0,.17.16.23.3.21a2.58,2.58,0,0,0,1.34-.61A1.61,1.61,0,0,0,56,142.7.12.12,0,0,0,55.8,142.59Z" style="fill:#008e90"/><path d="M55.46,142.94a6.71,6.71,0,0,0-1,.78c-.2.2-.48.4-.55.68a.1.1,0,1,0,.19,0,2.58,2.58,0,0,1,.65-.86c.22-.22.46-.42.7-.63Z" style="fill:#006d6d"/><path d="M49.57,150.43a2.4,2.4,0,0,0,1,1.55,3.76,3.76,0,0,0,2.09.34c.19,0,.4-.17.33-.4,0-.07,0-.14-.07-.22a1.65,1.65,0,0,0-1-1.27,10.17,10.17,0,0,0-2.21-.22A.18.18,0,0,0,49.57,150.43Z" style="fill:#008e90"/><path d="M50.36,150.57a10.21,10.21,0,0,1,1.67.71c.35.21.8.37,1,.74a.14.14,0,1,1-.25.12c-.16-.35-.91-.76-1.22-.94s-.81-.42-1.22-.62C50.34,150.58,50.35,150.56,50.36,150.57Z" style="fill:#006d6d"/><path d="M45.4,142.93c.25,1.64.53,3,1.9,4.13a9.06,9.06,0,0,0,5,1.58c.46,0,1-.26,1-.83l-.09-.56a4,4,0,0,0-1.92-3.44c-1.6-1-3.54-.75-5.26-1.35A.45.45,0,0,0,45.4,142.93Z" style="fill:#008e90"/><path d="M47.26,143.56A26,26,0,0,1,51,145.88c.78.64,1.82,1.2,2.2,2.17a.35.35,0,1,1-.67.21c-.26-.91-1.91-2.18-2.61-2.73-.87-.69-1.81-1.31-2.73-1.93C47.21,143.58,47.24,143.54,47.26,143.56Z" style="fill:#006d6d"/><path d="M50.35,135.75a4.22,4.22,0,0,0,.42,3.3,6.64,6.64,0,0,0,3.11,2.2.59.59,0,0,0,.85-.37l.06-.41a2.94,2.94,0,0,0-.58-2.82c-.91-1-2.3-1.31-3.38-2.11A.34.34,0,0,0,50.35,135.75Z" style="fill:#008e90"/><path d="M51.51,136.6a18.42,18.42,0,0,1,2.13,2.46,4.42,4.42,0,0,1,1,2,.26.26,0,1,1-.51,0A6.2,6.2,0,0,0,53,138.57c-.45-.67-1-1.31-1.47-1.95C51.47,136.6,51.5,136.58,51.51,136.6Z" style="fill:#006d6d"/><polygon points="62.47 153.89 44.72 153.89 46.6 167.3 60.58 167.3 62.47 153.89" style="fill:#ffe6bf"/><rect x="44.11" y="153.89" width="18.97" height="3.53" rx="0.61" style="fill:#fff5d2"/></g></g></svg>