<svg xmlns="http://www.w3.org/2000/svg" viewBox="0 0 81.42 165.65"><g id="Vrstva_2" data-name="Vrstva 2"><g id="OBJECTS"><g id="_1" data-name="1"><path d="M81.42,145.43v20.22H0V145.43A40.59,40.59,0,0,1,13.72,115h0a40.58,40.58,0,0,1,16.17-8.77h0a40.71,40.71,0,0,1,51.52,39.26Z"/><path d="M29.9,90.72H51.52a0,0,0,0,1,0,0V110.5a10.81,10.81,0,0,1-10.81,10.81h0A10.81,10.81,0,0,1,29.9,110.5V90.72A0,0,0,0,1,29.9,90.72Z" style="fill:#f8b5a4"/><path d="M29.9,109.19a28.6,28.6,0,0,0,10.81,2.11h0a28.68,28.68,0,0,0,10.81-2.11V90.72H29.9Z" style="fill:#e58680"/><path d="M71.15,64.51H10.27a7.93,7.93,0,0,1-7.93-7.93h0a7.93,7.93,0,0,1,7.93-7.92H71.15a7.92,7.92,0,0,1,7.92,7.92h0A7.92,7.92,0,0,1,71.15,64.51Z" style="fill:#e58680"/><path d="M40.71,103.21h0a28.74,28.74,0,0,1-28.6-25.92L8.59,41.51A28.74,28.74,0,0,1,37.19,10h7a28.74,28.74,0,0,1,28.6,31.55L69.31,77.29A28.74,28.74,0,0,1,40.71,103.21Z" style="fill:#f8b5a4"/><path d="M29.55,60.45c0-2.33-1.28-4.22-2.86-4.22s-2.86,1.89-2.86,4.22,1.28,4.23,2.86,4.23S29.55,62.79,29.55,60.45Z"/><path d="M19.45,54.43a11.7,11.7,0,0,1,2-3,9,9,0,0,1,3.08-2.2,10.83,10.83,0,0,1,1.9-.62,5,5,0,0,1,2,.09,5.65,5.65,0,0,1,3.2,2.13.12.12,0,0,1,0,.15l-.07,0h0a17.5,17.5,0,0,1-1.8-.19,15.59,15.59,0,0,0-1.61-.13,9.9,9.9,0,0,0-3.07.06,11,11,0,0,0-5.45,3.82h0a.1.1,0,0,1-.14,0A.1.1,0,0,1,19.45,54.43Z"/><path d="M51.86,60.45c0-2.33,1.29-4.22,2.87-4.22s2.86,1.89,2.86,4.22-1.28,4.23-2.86,4.23S51.86,62.79,51.86,60.45Z"/><path d="M61.79,54.53a11,11,0,0,0-5.45-3.82,9.9,9.9,0,0,0-3.07-.06,15.59,15.59,0,0,0-1.61.13,17.8,17.8,0,0,1-1.8.19h0a.11.11,0,0,1-.11-.11.11.11,0,0,1,0-.06A5.65,5.65,0,0,1,53,48.67a5,5,0,0,1,2-.09,10.57,10.57,0,0,1,1.9.62A9.07,9.07,0,0,1,60,51.4a11.7,11.7,0,0,1,2,3,.1.1,0,0,1-.06.13.08.08,0,0,1-.11,0Z"/><path d="M29.1,72c0,1.37-2.38,2.49-5.32,2.49S18.47,73.32,18.47,72s2.38-2.5,5.31-2.5S29.1,70.57,29.1,72Z" style="fill:#e58680"/><path d="M63,72c0,1.37-2.38,2.49-5.32,2.49S52.32,73.32,52.32,72s2.38-2.5,5.31-2.5S63,70.57,63,72Z" style="fill:#e58680"/><path d="M41.44,82.53H40A2.44,2.44,0,0,1,37.55,80l.72-19.88a2.45,2.45,0,0,1,2.44-2.35h0a2.45,2.45,0,0,1,2.44,2.35L43.87,80A2.44,2.44,0,0,1,41.44,82.53Z" style="fill:#e58680"/><path d="M60.24,80.6V91.28a7.84,7.84,0,0,1-5.3,7.18L48,101.1a20.39,20.39,0,0,1-14.59,0l-6.94-2.64a7.83,7.83,0,0,1-5.3-7.18V80.6A6.94,6.94,0,0,1,21.69,78a6.68,6.68,0,0,1,.51-1A8.58,8.58,0,0,1,27.74,73l8.41-1.91a20.31,20.31,0,0,1,9.11,0L53.66,73a8.61,8.61,0,0,1,5.54,3.87,6.58,6.58,0,0,1,.51,1A6.83,6.83,0,0,1,60.24,80.6Z" style="fill:#f8faff"/><path d="M21.66,81.28a26.84,26.84,0,0,0,4.68,1.5,36.2,36.2,0,0,0,4.81.86c.81.06,1.62.15,2.43.14s1.61.08,2.42.17,1.61.18,2.42.34a19.19,19.19,0,0,1,2.49.49V85a14.52,14.52,0,0,1-5,1,19.92,19.92,0,0,1-5-.73A38.12,38.12,0,0,1,26,83.74a23.94,23.94,0,0,1-4.48-2.29Z" style="fill:#dcdee2"/><path d="M59.05,85.09A42.68,42.68,0,0,1,52.56,88a46.58,46.58,0,0,1-6.92,1.8,24.21,24.21,0,0,1-7.21.42A16.85,16.85,0,0,1,31.6,87.8l.07-.19c2.4.25,4.63.54,6.91.58s4.55.21,6.85,0A47,47,0,0,0,52.27,87,49.39,49.39,0,0,0,59,84.91Z" style="fill:#dcdee2"/><path d="M59.71,77.94a36.2,36.2,0,0,1-9.32-1.86,30.28,30.28,0,0,0-9.69-1.72,31.19,31.19,0,0,0-9.56,1.73A36.84,36.84,0,0,1,21.69,78a6.68,6.68,0,0,1,.51-1,36.71,36.71,0,0,0,8.66-1.79,32,32,0,0,1,9.84-1.77,31.25,31.25,0,0,1,10,1.76,36.17,36.17,0,0,0,8.52,1.79A6.58,6.58,0,0,1,59.71,77.94Z" style="fill:#d2d3d6"/><path d="M57.9,81.86a.5.5,0,0,1-.27-.07.51.51,0,0,1-.16-.69c.14-.21,13.27-21,14.06-32.42a.51.51,0,0,1,.54-.46.5.5,0,0,1,.46.53c-.81,11.66-13.66,32-14.21,32.88A.51.51,0,0,1,57.9,81.86Z" style="fill:#f8faff"/><path d="M58.53,94.75a.5.5,0,0,1-.31-.1.51.51,0,0,1-.09-.71c10.05-12.69,12.41-29.33,12.44-29.5a.5.5,0,0,1,.56-.43.51.51,0,0,1,.43.57c0,.17-2.42,17.07-12.64,30A.49.49,0,0,1,58.53,94.75Z" style="fill:#f8faff"/><path d="M23.52,81.86a.49.49,0,0,1-.42-.23c-.55-.86-13.41-21.22-14.21-32.88a.5.5,0,0,1,.46-.53.52.52,0,0,1,.54.46c.78,11.41,13.92,32.21,14.05,32.42a.5.5,0,0,1-.15.69A.52.52,0,0,1,23.52,81.86Z" style="fill:#f8faff"/><path d="M22.89,94.75a.48.48,0,0,1-.39-.19C12.28,81.65,9.88,64.75,9.86,64.58a.5.5,0,1,1,1-.14c0,.17,2.39,16.81,12.43,29.5a.51.51,0,0,1-.08.71A.5.5,0,0,1,22.89,94.75Z" style="fill:#f8faff"/><rect x="32.17" y="121.32" width="17.06" height="44.34" style="fill:#dcdee2"/><path d="M36.54,165.65H26.31l-6.77-16.9,7.56-8.08-10.48,1.16L13.72,115h0a40.58,40.58,0,0,1,16.17-8.77h0l1.71,12.17Z" style="fill:#333"/><path d="M44.88,165.65H55.11l6.77-16.9-7.56-8.08,10.48,1.16L67.7,115h0a40.58,40.58,0,0,0-16.17-8.77h0l-1.71,12.17Z" style="fill:#333"/><path d="M29.9,106.17s.65,11,10.81,15.15L35.3,130.5S15.82,118.16,29.9,106.17Z" style="fill:#f8faff"/><path d="M51.52,106.17s-.65,11-10.81,15.15l5.4,9.18S65.6,118.16,51.52,106.17Z" style="fill:#f8faff"/><path d="M63.16,31.58s5.94,3.05,9.37,17.17c0,0,7.09-20.71-4.83-29.24Z"/><path d="M18.26,31.58s-5.94,3.05-9.37,17.17c0,0-7.09-20.71,4.83-29.24Z"/><path d="M24.48,39.14C10,37.57,1.76,20.91,9.78,8.57,14.39,1.48,23.83-3,42.6,2.34c0,0,36.92,8.82,31.05,25.14a66.53,66.53,0,0,1-7.39,3.93,58.16,58.16,0,0,1-45,11s16,1.2,25.12-4.45A71.56,71.56,0,0,1,24.48,39.14Z"/><path d="M28.64,3.09A32.06,32.06,0,0,0,22.32,7a22.47,22.47,0,0,0-4.89,5.28,11.3,11.3,0,0,0-.94,1.52,11,11,0,0,0-.82,1.6l-.73,1.66-.55,1.73-.28.87c-.08.29-.12.6-.19.9l-.39,1.81c-.23,1.22-.3,2.47-.55,3.74a30.16,30.16,0,0,1-.43-3.82,21,21,0,0,1,.32-3.86,18.32,18.32,0,0,1,2.91-7.27c.4-.53.75-1.09,1.19-1.58s.88-1,1.34-1.45l1.5-1.28c.52-.4,1.07-.76,1.61-1.12A17.68,17.68,0,0,1,28.64,3.09Z" style="fill:#898989"/></g></g></g></svg>