<svg xmlns="http://www.w3.org/2000/svg" viewBox="0 0 92.74 175.75"><g id="Vrstva_2" data-name="Vrstva 2"><g id="OBJECTS"><g id="_2" data-name="2"><path d="M26.13.15a10,10,0,0,0-3.67,1c-3.73,1.94-2.4,6.31-4.67,9.24-2,2.57-5.85,2.46-8.74,3.94A8.48,8.48,0,0,0,4.62,20.5c-.29,2,.16,4.05.18,6.09C4.86,30.93,1,32.94.11,36.93c-.66,3.14,1.71,8.56,3.34,11.13,2.36,3.72,4.1,6.38,1.63,11.33s-5.78,9,.14,13.34c2.78,2,5.47,2.17,7.27,5.55,2.78,5.19,4.61,8.44,11,9.94,5.55,1.31,9.9.06,15-2,7.3-3,11.4-2.3,18.6.45,4.12,1.58,9.78,4.16,13.92,1.27,1.89-1.32,2.23-4,4.12-5.21,4-2.51,10.21,1.53,11.61-5.34.43-2.13-1-4.27.2-6.33,1.51-2.63,5-2.84,5.51-6.44,1-6.43-7.53-7-3.78-13.88,1.78-3.26,4.24-4.24,4.13-8.47-.08-3.1-.95-4.11-3.67-5.59-4-2.17-4.07-2.66-2.66-7.56s-.4-7.76-6-9c-2.56-.58-4.13.2-6.36-1.92-1.13-1.06-1.58-2.65-2.47-3.89a10,10,0,0,0-6.32-4.39c-2.71-.49-5.56.24-8.18-.83S52.57,5,49.7,4.34c-2.71-.62-5.59,1-8.28.25-1.91-.52-3.31-2.12-5-3.11C33.88,0,30.82-.08,27.91,0,27.32.06,26.73.09,26.13.15Z" style="fill:#893327"/><path d="M87.19,155.53v20.22H5.77V155.53a40.48,40.48,0,0,1,6.67-22.33A37.89,37.89,0,0,1,15.59,129a40.44,40.44,0,0,1,6.16-5.83c1-.77,2.06-1.5,3.15-2.18a40.33,40.33,0,0,1,6.17-3.17c1-.42,2.08-.8,3.14-1.14a39.77,39.77,0,0,1,6.17-1.42c1-.16,2.09-.28,3.15-.35s2-.11,2.95-.11,2.15,0,3.21.13,2.11.2,3.15.37A39.49,39.49,0,0,1,59,116.78c1.07.34,2.12.73,3.15,1.16a40.48,40.48,0,0,1,6.16,3.22q1.64,1,3.15,2.22a39.16,39.16,0,0,1,3.8,3.36c.82.82,1.61,1.68,2.36,2.57a40.72,40.72,0,0,1,9.57,26.22Z" style="fill:#039df2"/><path d="M15.59,129v46.74H12.44V133.2A37.89,37.89,0,0,1,15.59,129Z" style="fill:#10ccff"/><path d="M24.9,121v54.75H21.75V123.18C22.76,122.41,23.81,121.68,24.9,121Z" style="fill:#10ccff"/><path d="M34.21,116.69v59.06H31.07V117.83C32.1,117.41,33.15,117,34.21,116.69Z" style="fill:#10ccff"/><path d="M43.53,114.92v60.83H40.38V115.27C41.42,115.11,42.47,115,43.53,114.92Z" style="fill:#10ccff"/><path d="M52.84,175.75V115.31c-1-.17-2.09-.29-3.15-.37v60.81Z" style="fill:#10ccff"/><path d="M62.15,117.94v57.81H59v-59C60.07,117.12,61.12,117.51,62.15,117.94Z" style="fill:#10ccff"/><path d="M71.46,175.75V123.38q-1.51-1.18-3.15-2.22v54.59Z" style="fill:#10ccff"/><path d="M80.77,175.75V133.59a40.29,40.29,0,0,0-3.15-4.28v46.44Z" style="fill:#10ccff"/><path d="M46.48,131.41h0A10.81,10.81,0,0,1,35.67,120.6V100.82H57.29V120.6A10.81,10.81,0,0,1,46.48,131.41Z" style="fill:#f8b5a4"/><path d="M35.67,119.29a28.6,28.6,0,0,0,10.81,2.11h0a28.68,28.68,0,0,0,10.81-2.11V100.82H35.67Z" style="fill:#e58680"/><path d="M76.92,74.61H16a7.93,7.93,0,0,1-7.93-7.93h0A7.92,7.92,0,0,1,16,58.76H76.92a7.92,7.92,0,0,1,7.92,7.92h0A7.93,7.93,0,0,1,76.92,74.61Z" style="fill:#e58680"/><path d="M46.48,113.31h0a28.74,28.74,0,0,1-28.6-25.92L14.36,51.6A28.73,28.73,0,0,1,43,20.06h7A28.72,28.72,0,0,1,78.59,51.6L75.07,87.39A28.72,28.72,0,0,1,46.48,113.31Z" style="fill:#f8b5a4"/><path d="M35.32,70.55c0-2.33-1.28-4.22-2.86-4.22s-2.86,1.89-2.86,4.22,1.28,4.22,2.86,4.22S35.32,72.88,35.32,70.55Z"/><path d="M25.22,64.53a11.46,11.46,0,0,1,2-3,8.93,8.93,0,0,1,3.08-2.2,10.83,10.83,0,0,1,1.9-.62,5,5,0,0,1,2,.09,5.67,5.67,0,0,1,3.2,2.12.12.12,0,0,1,0,.16l-.06,0h0a15,15,0,0,1-1.79-.2c-.57,0-1.09-.14-1.61-.12a9.6,9.6,0,0,0-3.07.06,11,11,0,0,0-5.46,3.82h0a.11.11,0,0,1-.14,0A.1.1,0,0,1,25.22,64.53Z" style="fill:#893327"/><path d="M57.63,70.55c0-2.33,1.28-4.22,2.86-4.22s2.87,1.89,2.87,4.22-1.29,4.22-2.87,4.22S57.63,72.88,57.63,70.55Z"/><path d="M67.56,64.63a11,11,0,0,0-5.45-3.82A9.6,9.6,0,0,0,59,60.75c-.52,0-1,.09-1.61.12a15.46,15.46,0,0,1-1.8.2h0a.11.11,0,0,1-.1-.11.19.19,0,0,1,0-.07,5.6,5.6,0,0,1,3.2-2.12,5,5,0,0,1,2-.09,10.83,10.83,0,0,1,1.9.62,9.07,9.07,0,0,1,3.09,2.2,11.42,11.42,0,0,1,2,3,.09.09,0,0,1,0,.13.1.1,0,0,1-.12,0Z" style="fill:#893327"/><path d="M34.86,82.05c0,1.37-2.37,2.49-5.31,2.49s-5.31-1.12-5.31-2.49,2.38-2.5,5.31-2.5S34.86,80.67,34.86,82.05Z" style="fill:#e58680"/><path d="M68.72,82.05c0,1.37-2.38,2.49-5.32,2.49s-5.31-1.12-5.31-2.49,2.38-2.5,5.31-2.5S68.72,80.67,68.72,82.05Z" style="fill:#e58680"/><path d="M47.2,92.63H45.75a2.44,2.44,0,0,1-2.44-2.53L44,70.21a2.44,2.44,0,0,1,2.44-2.34h0a2.42,2.42,0,0,1,2.43,2.34l.73,19.89A2.44,2.44,0,0,1,47.2,92.63Z" style="fill:#e58680"/><path d="M66,90.7v10.68a7.84,7.84,0,0,1-5.3,7.18l-6.94,2.64a20.39,20.39,0,0,1-14.59,0l-6.94-2.64a7.83,7.83,0,0,1-5.3-7.18V90.7a6.94,6.94,0,0,1,.52-2.64A6.68,6.68,0,0,1,28,87a8.58,8.58,0,0,1,5.54-3.88l8.41-1.91a20.31,20.31,0,0,1,9.11,0l8.4,1.91A8.61,8.61,0,0,1,65,87a6.58,6.58,0,0,1,.51,1A6.83,6.83,0,0,1,66,90.7Z" style="fill:#f8faff"/><path d="M27.43,91.38a28.65,28.65,0,0,0,4.68,1.5,37.89,37.89,0,0,0,4.81.86c.81.06,1.62.14,2.43.14s1.61.08,2.41.17,1.61.18,2.43.33a18.79,18.79,0,0,1,2.48.5l0,.2a14.53,14.53,0,0,1-5,1,19.47,19.47,0,0,1-5-.74,36.57,36.57,0,0,1-4.84-1.48,24.52,24.52,0,0,1-4.48-2.28Z" style="fill:#dcdee2"/><path d="M64.82,95.19a43.69,43.69,0,0,1-6.49,2.87,46.58,46.58,0,0,1-6.92,1.8,24.26,24.26,0,0,1-7.22.42,16.8,16.8,0,0,1-6.82-2.38l.07-.19c2.4.24,4.63.54,6.91.58a68.07,68.07,0,0,0,6.85,0A44.67,44.67,0,0,0,58,97.1,48,48,0,0,0,64.73,95Z" style="fill:#dcdee2"/><path d="M65.48,88a36.2,36.2,0,0,1-9.32-1.86,30.28,30.28,0,0,0-9.69-1.72,31.19,31.19,0,0,0-9.56,1.73,36.84,36.84,0,0,1-9.45,1.87A6.68,6.68,0,0,1,28,87a36.71,36.71,0,0,0,8.66-1.79,32,32,0,0,1,9.84-1.77,31.25,31.25,0,0,1,10,1.76A36.17,36.17,0,0,0,65,87,6.58,6.58,0,0,1,65.48,88Z" style="fill:#d2d3d6"/><path d="M63.66,92a.42.42,0,0,1-.26-.08.49.49,0,0,1-.16-.69c.13-.2,13.27-21,14.06-32.41a.5.5,0,0,1,1,.07c-.81,11.66-13.67,32-14.21,32.88A.51.51,0,0,1,63.66,92Z" style="fill:#f8faff"/><path d="M64.29,104.85a.45.45,0,0,1-.3-.11.5.5,0,0,1-.09-.7C74,91.35,76.31,74.71,76.33,74.54a.5.5,0,0,1,1,.14c0,.17-2.42,17.07-12.64,30A.5.5,0,0,1,64.29,104.85Z" style="fill:#f8faff"/><path d="M29.29,92a.48.48,0,0,1-.42-.23c-.55-.86-13.41-21.22-14.21-32.88a.5.5,0,1,1,1-.07C16.44,70.19,29.58,91,29.71,91.19a.5.5,0,0,1-.15.69A.45.45,0,0,1,29.29,92Z" style="fill:#f8faff"/><path d="M28.66,104.85a.48.48,0,0,1-.39-.19c-10.22-12.91-12.62-29.81-12.64-30a.5.5,0,0,1,.43-.57.51.51,0,0,1,.56.43c0,.17,2.39,16.81,12.43,29.5a.49.49,0,0,1-.08.7A.45.45,0,0,1,28.66,104.85Z" style="fill:#f8faff"/><path d="M18.63,27.62c-7.95,4.58-9.32,11.6-8.15,20.2.59,4.41,3,9.6,8.49,5.84,3-2,3.61-5.3,8.17-2.81,3.29,1.8,4.35,4.85,8.69,1.59,2.74-2,3.6-7.06,8.05-5.61,3,1,4.94,5.43,8.07,1.72,1.84-2.18.5-7.26,5.37-4.36,2.9,1.73,1.29,6.25,4.1,7.19,3.69,1.23,4-3.66,6.48-4.91,3.54-1.81,5.39.77,5.67,3.76.24,2.48-1,4,1.44,6s5.18,1.33,6.37-1.5c3-7.18.67-16.69-2.58-23.33-6.38-13-19.61-17.12-33.32-15.61C35.63,16.91,24.55,18.81,18.63,27.62Z" style="fill:#893327"/><path d="M32.17,9.51a33.3,33.3,0,0,0-8.66,6.14,26.46,26.46,0,0,0-3.32,4,22.27,22.27,0,0,0-2.43,4.57,28.61,28.61,0,0,0-2,10.2,55.32,55.32,0,0,0,1,10.66,32.16,32.16,0,0,1-2.52-10.63,27.25,27.25,0,0,1,.22-5.56,25.58,25.58,0,0,1,1.47-5.42,23,23,0,0,1,6.55-9A23.55,23.55,0,0,1,32.17,9.51Z" style="fill:#e58680"/></g></g></g></svg>