<svg xmlns="http://www.w3.org/2000/svg" viewBox="0 0 83.12 173.16"><g id="Vrstva_2" data-name="Vrstva 2"><g id="OBJECTS"><g id="_3" data-name="3"><path d="M83.12,152.93v20.23H1.69V152.93q0-1.59.12-3.15l.24-2.27a39.35,39.35,0,0,1,1.4-6.45l.76-2.26a39.33,39.33,0,0,1,3.07-6.45c.44-.77.92-1.52,1.43-2.26a39,39,0,0,1,5.44-6.45c.81-.8,1.67-1.55,2.55-2.27a40.68,40.68,0,0,1,51.41,0c.89.72,1.74,1.48,2.56,2.27l.52.51a40.46,40.46,0,0,1,4.91,5.94c.51.74,1,1.49,1.43,2.26a39.33,39.33,0,0,1,3.07,6.45l.76,2.26a39.35,39.35,0,0,1,1.4,6.45c.1.75.18,1.5.24,2.27Q83.12,151.34,83.12,152.93Z" style="fill:#fccc6a"/><path d="M70.67,123.64H14.15l2.55-2.27H68.11C69,122.09,69.85,122.85,70.67,123.64Z" style="fill:#ce9530"/><polygon points="76.1 130.09 8.71 130.09 7.28 132.35 77.53 132.35 76.1 130.09" style="fill:#ce9530"/><polygon points="80.6 138.81 4.21 138.81 3.45 141.06 81.36 141.06 80.6 138.81" style="fill:#ce9530"/><path d="M83,149.78H1.81l.24-2.27H82.76C82.86,148.26,82.94,149,83,149.78Z" style="fill:#ce9530"/><rect x="1.69" y="156.22" width="81.43" height="2.27" style="fill:#ce9530"/><rect x="1.69" y="164.94" width="81.43" height="2.26" style="fill:#ce9530"/><path d="M42.4,128.83h0A10.81,10.81,0,0,1,31.59,118V98.24H53.22V118A10.81,10.81,0,0,1,42.4,128.83Z" style="fill:#f8b5a4"/><path d="M31.59,116.7a28.68,28.68,0,0,0,10.81,2.11h0a28.69,28.69,0,0,0,10.82-2.11V98.24H31.59Z" style="fill:#e58680"/><path d="M72.84,72H12A7.93,7.93,0,0,1,4,64.1H4A7.93,7.93,0,0,1,12,56.17H72.84a7.93,7.93,0,0,1,7.93,7.93h0A7.93,7.93,0,0,1,72.84,72Z" style="fill:#e58680"/><path d="M42.4,110.72h0A28.72,28.72,0,0,1,13.81,84.8L10.29,49A28.73,28.73,0,0,1,38.88,17.47h7A28.74,28.74,0,0,1,74.52,49L71,84.8A28.74,28.74,0,0,1,42.4,110.72Z" style="fill:#f8b5a4"/><path d="M31.25,68c0-2.34-1.28-4.23-2.86-4.23S25.53,65.63,25.53,68s1.28,4.22,2.86,4.22S31.25,70.3,31.25,68Z"/><path d="M21.15,61.94a11.22,11.22,0,0,1,2-3,8.93,8.93,0,0,1,3.08-2.2,11.73,11.73,0,0,1,1.9-.62,5,5,0,0,1,2,.1,5.56,5.56,0,0,1,3.19,2.12.1.1,0,0,1,0,.15l-.06,0h0c-.67,0-1.23-.14-1.8-.19s-1.09-.14-1.61-.13a9.9,9.9,0,0,0-3.07.06A11,11,0,0,0,21.32,62h0a.1.1,0,0,1-.14,0A.1.1,0,0,1,21.15,61.94Z" style="fill:#893327"/><path d="M53.56,68c0-2.34,1.28-4.23,2.86-4.23s2.86,1.89,2.86,4.23S58,72.19,56.42,72.19,53.56,70.3,53.56,68Z"/><path d="M63.49,62A11,11,0,0,0,58,58.22,9.89,9.89,0,0,0,55,58.16c-.52,0-1,.09-1.61.13a17.59,17.59,0,0,1-1.79.19h0a.11.11,0,0,1-.11-.11.09.09,0,0,1,0-.06,5.56,5.56,0,0,1,3.19-2.12,5,5,0,0,1,2-.1,11.73,11.73,0,0,1,1.9.62,8.93,8.93,0,0,1,3.08,2.2,11.22,11.22,0,0,1,2,3,.1.1,0,0,1,0,.13.11.11,0,0,1-.12,0Z" style="fill:#893327"/><path d="M30.79,79.46c0,1.38-2.38,2.49-5.31,2.49s-5.31-1.11-5.31-2.49S22.54,77,25.48,77,30.79,78.08,30.79,79.46Z" style="fill:#e58680"/><path d="M64.64,79.46c0,1.38-2.38,2.49-5.31,2.49S54,80.84,54,79.46,56.4,77,59.33,77,64.64,78.08,64.64,79.46Z" style="fill:#e58680"/><path d="M43.13,90H41.68a2.44,2.44,0,0,1-2.44-2.53L40,67.63a2.44,2.44,0,0,1,2.43-2.35h0a2.44,2.44,0,0,1,2.44,2.35l.73,19.88A2.44,2.44,0,0,1,43.13,90Z" style="fill:#e58680"/><path d="M61.94,88.11V98.79a7.84,7.84,0,0,1-5.3,7.18l-6.94,2.64a20.39,20.39,0,0,1-14.59,0L28.17,106a7.83,7.83,0,0,1-5.3-7.18V88.11a6.94,6.94,0,0,1,.52-2.64,6.68,6.68,0,0,1,.51-1,8.58,8.58,0,0,1,5.54-3.88l8.41-1.91a20.31,20.31,0,0,1,9.11,0l8.4,1.91a8.61,8.61,0,0,1,5.54,3.87,6.58,6.58,0,0,1,.51,1A6.83,6.83,0,0,1,61.94,88.11Z" style="fill:#f8faff"/><path d="M23.36,88.79A26.84,26.84,0,0,0,28,90.29a35.63,35.63,0,0,0,4.81.86c.81.06,1.61.15,2.43.14s1.61.09,2.41.17,1.61.18,2.43.34a17.86,17.86,0,0,1,2.48.5l0,.2a14.52,14.52,0,0,1-5,1,19.34,19.34,0,0,1-5-.73,38.12,38.12,0,0,1-4.84-1.48A23.94,23.94,0,0,1,23.26,89Z" style="fill:#dcdee2"/><path d="M60.74,92.6a42.84,42.84,0,0,1-6.49,2.88,47.15,47.15,0,0,1-6.92,1.79,24.53,24.53,0,0,1-7.21.43,16.82,16.82,0,0,1-6.82-2.39l.07-.19c2.4.25,4.63.55,6.91.58s4.54.21,6.85,0A47.25,47.25,0,0,0,54,94.52a49.25,49.25,0,0,0,6.68-2.1Z" style="fill:#dcdee2"/><path d="M61.41,85.45a36.2,36.2,0,0,1-9.32-1.86,30.28,30.28,0,0,0-9.69-1.72,31.19,31.19,0,0,0-9.56,1.73,36.84,36.84,0,0,1-9.45,1.87,6.68,6.68,0,0,1,.51-1,36.71,36.71,0,0,0,8.66-1.79,32,32,0,0,1,9.84-1.77,31.25,31.25,0,0,1,10,1.76,36.17,36.17,0,0,0,8.52,1.79A6.58,6.58,0,0,1,61.41,85.45Z" style="fill:#d2d3d6"/><path d="M59.59,89.38a.56.56,0,0,1-.27-.08.5.5,0,0,1-.15-.69c.13-.21,13.27-21,14.06-32.42a.5.5,0,0,1,.53-.46.49.49,0,0,1,.46.53c-.8,11.66-13.66,32-14.21,32.88A.49.49,0,0,1,59.59,89.38Z" style="fill:#f8faff"/><path d="M60.22,102.27a.51.51,0,0,1-.31-.11.5.5,0,0,1-.08-.7c10-12.7,12.41-29.34,12.43-29.51a.5.5,0,0,1,.56-.42.49.49,0,0,1,.43.56c0,.17-2.42,17.07-12.64,30A.49.49,0,0,1,60.22,102.27Z" style="fill:#f8faff"/><path d="M25.22,89.38a.52.52,0,0,1-.43-.24c-.54-.86-13.4-21.22-14.21-32.88a.5.5,0,0,1,.47-.53.51.51,0,0,1,.53.46C12.37,67.6,25.51,88.4,25.64,88.61a.51.51,0,0,1-.42.77Z" style="fill:#f8faff"/><path d="M24.59,102.27a.53.53,0,0,1-.4-.19C14,89.16,11.58,72.26,11.56,72.09a.49.49,0,0,1,.42-.56.51.51,0,0,1,.57.42c0,.17,2.38,16.81,12.43,29.51a.5.5,0,0,1-.08.7A.56.56,0,0,1,24.59,102.27Z" style="fill:#f8faff"/><path d="M11.05,55.73s30.51,3.54,48.67-21.95c0,0-1.62,18,13.51,22.41,0,0,17-19,0-36.07,0,0-30.61-30.51-59.08-16.39C14.15,3.73-15.51,18,11.05,55.73Z" style="fill:#893327"/><path d="M17.22,6.43a33.18,33.18,0,0,0-6.78,8.18,26.68,26.68,0,0,0-2.16,4.75,22.35,22.35,0,0,0-1.16,5,28.59,28.59,0,0,0,.74,10.36,56,56,0,0,0,3.69,10,32.14,32.14,0,0,1-5.19-9.61,27,27,0,0,1-1.23-5.42,25.67,25.67,0,0,1,0-5.61,23,23,0,0,1,4-10.38A23.61,23.61,0,0,1,17.22,6.43Z" style="fill:#e58680"/></g></g></g></svg>