<svg xmlns="http://www.w3.org/2000/svg" viewBox="0 0 123.23 167"><g id="Vrstva_2" data-name="Vrstva 2"><g id="OBJECTS"><g id="_1" data-name="1"><circle cx="61.83" cy="38.37" r="38.37" style="fill:#d05c5d"/><circle cx="29.36" cy="70.81" r="29.36" transform="translate(-15.3 8.51) rotate(-13.11)" style="fill:#d05c5d"/><circle cx="93.87" cy="70.81" r="29.36" transform="translate(9.06 152.25) rotate(-80.87)" style="fill:#d05c5d"/><path d="M102.33,146.78V167H20.9V146.78a40.72,40.72,0,0,1,81.43,0Z" style="fill:#f2781c"/><path d="M80,110.43V167H43.27V110.43a40.67,40.67,0,0,1,36.68,0Z" style="fill:#05ce7c"/><path d="M61.62,122.67h0A10.81,10.81,0,0,1,50.8,111.86V92.08H72.43v19.78A10.81,10.81,0,0,1,61.62,122.67Z" style="fill:#f8b5a4"/><path d="M50.8,110.54a28.69,28.69,0,0,0,10.82,2.11h0a28.68,28.68,0,0,0,10.81-2.11V92.08H50.8Z" style="fill:#e58680"/><path d="M92.05,65.86H31.18a7.93,7.93,0,0,1-7.93-7.92h0A7.93,7.93,0,0,1,31.18,50H92.05A7.93,7.93,0,0,1,100,57.94h0A7.93,7.93,0,0,1,92.05,65.86Z" style="fill:#e58680"/><path d="M61.62,104.56h0A28.74,28.74,0,0,1,33,78.64L29.5,42.86A28.74,28.74,0,0,1,58.1,11.31h7A28.73,28.73,0,0,1,93.73,42.86L90.21,78.64A28.72,28.72,0,0,1,61.62,104.56Z" style="fill:#f8b5a4"/><path d="M50.46,61.81c0-2.34-1.28-4.23-2.86-4.23s-2.86,1.89-2.86,4.23S46,66,47.6,66,50.46,64.14,50.46,61.81Z"/><path d="M40.36,55.78a11.38,11.38,0,0,1,2-3,8.93,8.93,0,0,1,3.08-2.2,11.73,11.73,0,0,1,1.9-.62,5,5,0,0,1,2,.1,5.56,5.56,0,0,1,3.19,2.12.1.1,0,0,1,0,.15l-.06,0h0c-.67,0-1.23-.14-1.8-.19S49.58,52,49.05,52a9.91,9.91,0,0,0-3.07.06,11,11,0,0,0-5.45,3.82h0a.1.1,0,0,1-.14,0A.1.1,0,0,1,40.36,55.78Z" style="fill:#d05c5d"/><path d="M72.77,61.81c0-2.34,1.28-4.23,2.86-4.23s2.86,1.89,2.86,4.23S77.21,66,75.63,66,72.77,64.14,72.77,61.81Z"/><path d="M82.7,55.88a11,11,0,0,0-5.45-3.82A9.91,9.91,0,0,0,74.18,52c-.52,0-1.05.09-1.61.13s-1.13.19-1.8.19h0a.1.1,0,0,1-.1-.11.07.07,0,0,1,0-.06A5.56,5.56,0,0,1,73.86,50a5,5,0,0,1,2-.1,11.73,11.73,0,0,1,1.9.62,8.93,8.93,0,0,1,3.08,2.2,11.38,11.38,0,0,1,2,3,.1.1,0,0,1-.05.13.11.11,0,0,1-.12,0Z" style="fill:#d05c5d"/><path d="M50,73.3c0,1.38-2.38,2.49-5.31,2.49s-5.31-1.11-5.31-2.49,2.38-2.49,5.31-2.49S50,71.92,50,73.3Z" style="fill:#e58680"/><path d="M83.85,73.3c0,1.38-2.37,2.49-5.31,2.49s-5.31-1.11-5.31-2.49,2.38-2.49,5.31-2.49S83.85,71.92,83.85,73.3Z" style="fill:#e58680"/><path d="M62.34,83.88H60.89a2.44,2.44,0,0,1-2.44-2.53l.73-19.88a2.44,2.44,0,0,1,2.44-2.35h0a2.44,2.44,0,0,1,2.43,2.35l.73,19.88A2.44,2.44,0,0,1,62.34,83.88Z" style="fill:#e58680"/><path d="M81.15,82V92.63a7.84,7.84,0,0,1-5.3,7.18l-6.94,2.64a20.39,20.39,0,0,1-14.59,0l-6.94-2.64a7.83,7.83,0,0,1-5.3-7.18V82a6.94,6.94,0,0,1,.52-2.64,6.68,6.68,0,0,1,.51-1,8.58,8.58,0,0,1,5.54-3.88l8.41-1.91a20.6,20.6,0,0,1,9.11,0l8.4,1.91a8.61,8.61,0,0,1,5.54,3.87,6.27,6.27,0,0,1,.51,1A6.74,6.74,0,0,1,81.15,82Z" style="fill:#f8faff"/><path d="M42.57,82.63a27.75,27.75,0,0,0,4.68,1.51,37.55,37.55,0,0,0,4.81.85c.81.06,1.61.15,2.43.14s1.61.09,2.41.17,1.61.18,2.43.34a17.58,17.58,0,0,1,2.48.5l0,.2a14.52,14.52,0,0,1-5,1,18.92,18.92,0,0,1-5-.73A38.12,38.12,0,0,1,47,85.09a23.94,23.94,0,0,1-4.48-2.29Z" style="fill:#dcdee2"/><path d="M80,86.44a43.18,43.18,0,0,1-6.48,2.88,47.81,47.81,0,0,1-6.92,1.79,24.61,24.61,0,0,1-7.22.43,16.82,16.82,0,0,1-6.82-2.39l.07-.19c2.4.25,4.63.55,6.91.58s4.55.21,6.85,0a47.25,47.25,0,0,0,6.84-1.17,48.81,48.81,0,0,0,6.68-2.1Z" style="fill:#dcdee2"/><path d="M80.62,79.3a36.6,36.6,0,0,1-9.32-1.87,30.28,30.28,0,0,0-9.69-1.72,31.19,31.19,0,0,0-9.56,1.73,36.84,36.84,0,0,1-9.45,1.87,6.68,6.68,0,0,1,.51-1,36.71,36.71,0,0,0,8.66-1.79,32,32,0,0,1,9.84-1.77,31.25,31.25,0,0,1,10,1.76,36.17,36.17,0,0,0,8.52,1.79A6.27,6.27,0,0,1,80.62,79.3Z" style="fill:#d2d3d6"/><path d="M78.8,83.22a.56.56,0,0,1-.27-.08.5.5,0,0,1-.15-.69c.13-.21,13.27-21,14.06-32.42a.5.5,0,0,1,1,.07c-.81,11.66-13.67,32-14.22,32.88A.49.49,0,0,1,78.8,83.22Z" style="fill:#f8faff"/><path d="M79.43,96.11a.53.53,0,0,1-.31-.11.5.5,0,0,1-.08-.7C89.09,82.6,91.45,66,91.47,65.8a.5.5,0,0,1,.57-.43.49.49,0,0,1,.42.56c0,.17-2.42,17.07-12.63,30A.53.53,0,0,1,79.43,96.11Z" style="fill:#f8faff"/><path d="M44.43,83.22A.49.49,0,0,1,44,83c-.55-.86-13.41-21.22-14.22-32.88a.51.51,0,0,1,.47-.53.51.51,0,0,1,.53.46c.79,11.41,13.93,32.21,14.06,32.42a.5.5,0,0,1-.15.69A.56.56,0,0,1,44.43,83.22Z" style="fill:#f8faff"/><path d="M43.8,96.11a.49.49,0,0,1-.39-.19C33.19,83,30.79,66.1,30.77,65.93a.49.49,0,0,1,.43-.56.5.5,0,0,1,.56.43c0,.16,2.39,16.8,12.43,29.5a.5.5,0,0,1-.08.7A.51.51,0,0,1,43.8,96.11Z" style="fill:#f8faff"/><path d="M23.89,47.31S41.4,41.69,57,44.24l4.61-16.87,1.32,18.27s6.76-1.42,9.22,0l3.07-16.7,1.53,16.7s14.33-.28,18.63,2.21c0,0,7.25-40.65-33.55-40.65C61.83,7.2,26.21,2.59,23.89,47.31Z" style="fill:#d05c5d"/><path d="M33.05,41.59a31.05,31.05,0,0,1,.35-10.74,34.53,34.53,0,0,1,3.75-10.2,36.39,36.39,0,0,1,3.11-4.5,32.72,32.72,0,0,1,3.87-3.85,29.62,29.62,0,0,1,9.4-5.23,48.05,48.05,0,0,0-8.35,6.39,37.51,37.51,0,0,0-6.3,8.18,44,44,0,0,0-4,9.58A53.38,53.38,0,0,0,33.05,41.59Z" style="fill:#e58680"/></g></g></g></svg>