<svg xmlns="http://www.w3.org/2000/svg" viewBox="0 0 106.65 166.73"><g id="Vrstva_2" data-name="Vrstva 2"><g id="OBJECTS"><g id="_2" data-name="2"><path d="M101.31,53.16,92.5,39.66A9.55,9.55,0,0,1,91.65,38,38.36,38.36,0,0,0,15,36.81a5.6,5.6,0,0,1-.87,2.84h0L3.37,56.07A20.75,20.75,0,0,0,9,84.5H9a9.15,9.15,0,0,1-1.47,15.9,9.16,9.16,0,0,0-1.71,15.73l18.07,13.35a9.16,9.16,0,0,0,10.5.27l14.81-9.82a9.16,9.16,0,0,0,4.1-7.63,9.16,9.16,0,0,0,4.1,7.63l14.81,9.82a9.16,9.16,0,0,0,10.5-.27l20.86-15.41a7.58,7.58,0,0,0-4.5-13.67h0a7.64,7.64,0,0,1-4.33-13.93h0A24.31,24.31,0,0,0,101.31,53.16Z"/><path d="M53.3,105.79h0A40.71,40.71,0,0,1,94,146.5v20.23a0,0,0,0,1,0,0H12.58a0,0,0,0,1,0,0V146.5A40.71,40.71,0,0,1,53.3,105.79Z" style="fill:#8a6eff"/><path d="M53.3,122.39h0a10.81,10.81,0,0,1-10.82-10.81V91.8H64.11v19.78A10.81,10.81,0,0,1,53.3,122.39Z" style="fill:#f8b5a4"/><path d="M42.48,110.27a28.69,28.69,0,0,0,10.82,2.11h0a28.68,28.68,0,0,0,10.81-2.11V91.8H42.48Z" style="fill:#e58680"/><path d="M83.73,65.59H22.86a7.93,7.93,0,0,1-7.93-7.93h0a7.92,7.92,0,0,1,7.93-7.92H83.73a7.92,7.92,0,0,1,7.93,7.92h0A7.93,7.93,0,0,1,83.73,65.59Z" style="fill:#e58680"/><path d="M53.3,104.29h0A28.74,28.74,0,0,1,24.7,78.37L21.18,42.58A28.73,28.73,0,0,1,49.78,11h7A28.73,28.73,0,0,1,85.41,42.58L81.89,78.37A28.74,28.74,0,0,1,53.3,104.29Z" style="fill:#f8b5a4"/><path d="M42.14,61.53c0-2.33-1.28-4.22-2.86-4.22s-2.86,1.89-2.86,4.22,1.28,4.22,2.86,4.22S42.14,63.86,42.14,61.53Z"/><path d="M32,55.51a11.22,11.22,0,0,1,2-3,8.93,8.93,0,0,1,3.08-2.2,10.83,10.83,0,0,1,1.9-.62,5,5,0,0,1,2,.09,5.61,5.61,0,0,1,3.19,2.12.11.11,0,0,1,0,.16l-.06,0h0a15.46,15.46,0,0,1-1.8-.2c-.56,0-1.08-.14-1.61-.12a9.61,9.61,0,0,0-3.07.06,11,11,0,0,0-5.45,3.82h0a.11.11,0,0,1-.14,0A.1.1,0,0,1,32,55.51Z"/><path d="M64.45,61.53c0-2.33,1.28-4.22,2.86-4.22s2.86,1.89,2.86,4.22-1.28,4.22-2.86,4.22S64.45,63.86,64.45,61.53Z"/><path d="M74.38,55.61a11,11,0,0,0-5.45-3.82,9.61,9.61,0,0,0-3.07-.06c-.53,0-1,.09-1.61.12a15.46,15.46,0,0,1-1.8.2h0a.11.11,0,0,1-.11-.11.09.09,0,0,1,0-.07,5.61,5.61,0,0,1,3.19-2.12,5,5,0,0,1,2-.09,10.83,10.83,0,0,1,1.9.62,8.93,8.93,0,0,1,3.08,2.2,11.22,11.22,0,0,1,2,3,.1.1,0,0,1,0,.13.1.1,0,0,1-.12,0Z"/><ellipse cx="36.37" cy="73.02" rx="5.31" ry="2.49" style="fill:#e58680"/><path d="M75.53,73c0,1.38-2.38,2.5-5.31,2.5S64.91,74.4,64.91,73s2.38-2.49,5.31-2.49S75.53,71.65,75.53,73Z" style="fill:#e58680"/><path d="M54,83.61H52.57a2.44,2.44,0,0,1-2.44-2.53l.73-19.89a2.44,2.44,0,0,1,2.44-2.35h0a2.44,2.44,0,0,1,2.43,2.35l.73,19.89A2.44,2.44,0,0,1,54,83.61Z" style="fill:#e58680"/><path d="M72.83,81.68V92.36a7.84,7.84,0,0,1-5.3,7.18l-6.94,2.64a20.39,20.39,0,0,1-14.59,0l-6.94-2.64a7.83,7.83,0,0,1-5.3-7.18V81.68A6.94,6.94,0,0,1,34.28,79a6.68,6.68,0,0,1,.51-1,8.58,8.58,0,0,1,5.54-3.88l8.41-1.91a20.31,20.31,0,0,1,9.11,0l8.4,1.91A8.61,8.61,0,0,1,71.79,78a6.58,6.58,0,0,1,.51,1A6.83,6.83,0,0,1,72.83,81.68Z" style="fill:#f8faff"/><path d="M34.25,82.36a28.65,28.65,0,0,0,4.68,1.5,37.58,37.58,0,0,0,4.81.86c.81.06,1.61.14,2.43.14s1.61.08,2.41.17,1.61.18,2.43.33a19.12,19.12,0,0,1,2.48.5l0,.2a14.53,14.53,0,0,1-5,1,19.35,19.35,0,0,1-5-.74,36.57,36.57,0,0,1-4.84-1.48,24.52,24.52,0,0,1-4.48-2.28Z" style="fill:#dcdee2"/><path d="M71.63,86.17A42.8,42.8,0,0,1,65.14,89a47.37,47.37,0,0,1-6.91,1.8,24.27,24.27,0,0,1-7.22.42,16.8,16.8,0,0,1-6.82-2.38l.07-.19c2.4.24,4.63.54,6.91.58a68.08,68.08,0,0,0,6.85,0,44.67,44.67,0,0,0,6.84-1.17A47.43,47.43,0,0,0,71.54,86Z" style="fill:#dcdee2"/><path d="M72.3,79A36.2,36.2,0,0,1,63,77.16a30.28,30.28,0,0,0-9.69-1.72,31.19,31.19,0,0,0-9.56,1.73A36.84,36.84,0,0,1,34.28,79a6.68,6.68,0,0,1,.51-1,36.71,36.71,0,0,0,8.66-1.79,32,32,0,0,1,9.84-1.77,31.25,31.25,0,0,1,10,1.76A36.17,36.17,0,0,0,71.79,78,6.58,6.58,0,0,1,72.3,79Z" style="fill:#d2d3d6"/><path d="M70.48,82.94a.47.47,0,0,1-.27-.08.5.5,0,0,1-.15-.69c.13-.21,13.27-21,14.06-32.41a.5.5,0,0,1,1,.07c-.81,11.66-13.67,32-14.22,32.88A.48.48,0,0,1,70.48,82.94Z" style="fill:#f8faff"/><path d="M71.11,95.83a.45.45,0,0,1-.31-.11.5.5,0,0,1-.08-.7c10-12.69,12.41-29.33,12.43-29.5a.51.51,0,0,1,.57-.43.5.5,0,0,1,.42.57c0,.16-2.42,17.07-12.63,30A.5.5,0,0,1,71.11,95.83Z" style="fill:#f8faff"/><path d="M36.11,82.94a.48.48,0,0,1-.42-.23c-.55-.86-13.41-21.22-14.22-32.88a.5.5,0,0,1,.47-.53.51.51,0,0,1,.53.46C23.26,61.17,36.4,82,36.53,82.17a.5.5,0,0,1-.15.69A.47.47,0,0,1,36.11,82.94Z" style="fill:#f8faff"/><path d="M35.48,95.83a.47.47,0,0,1-.39-.19c-10.22-12.91-12.62-29.82-12.64-30a.5.5,0,0,1,.42-.57.52.52,0,0,1,.57.43c0,.17,2.38,16.81,12.43,29.5a.5.5,0,0,1-.08.7A.45.45,0,0,1,35.48,95.83Z" style="fill:#f8faff"/><rect x="40.23" y="122.39" width="26.14" height="44.34" style="fill:#fff9e1"/><path d="M42.48,107.25s.66,11,10.82,15.14l-5.41,9.19S28.4,119.24,42.48,107.25Z" style="fill:#e5dcb5"/><path d="M64.11,107.25s-.66,11-10.81,15.14l5.4,9.19S78.19,119.24,64.11,107.25Z" style="fill:#e5dcb5"/><path d="M17.19,43.05s40.74,9.42,55.64-27.14c0,0-18.31-18.41-47.42,1.46C25.41,17.37,19.45,23.19,17.19,43.05Z"/><path d="M69.22,19S62.4,45,88.74,49.76c0,0,1.55-28-16.51-36.31Z"/><path d="M42.48,42.53s-9.18,4.73-15.63,3.95c0,0,26.66,2.59,37.26-16.48Z"/><path d="M65.37,27.53s-3.75,16.41,16.76,24c0,0-14.24-8.59-11.91-28.51C70.22,23,67.94,17,65.37,27.53Z"/><path d="M45.35,5.24a39.85,39.85,0,0,0-9.22,5.3A32.07,32.07,0,0,0,29,18.1a26.9,26.9,0,0,0-2.54,4.54,32.07,32.07,0,0,0-1.79,4.92A52.21,52.21,0,0,0,23,38.09a30.91,30.91,0,0,1,.13-10.89A27.39,27.39,0,0,1,27.32,17a29.25,29.25,0,0,1,3.58-4.27,28.16,28.16,0,0,1,4.34-3.44A26.43,26.43,0,0,1,45.35,5.24Z" style="fill:#898989"/></g></g></g></svg>