<svg xmlns="http://www.w3.org/2000/svg" viewBox="0 0 89.82 166.73"><g id="Vrstva_2" data-name="Vrstva 2"><g id="OBJECTS"><g id="_3" data-name="3"><path d="M6.78,40.58,0,109.39s11.15,10.21,44.91,7.3V30Z" style="fill:#d05c5d"/><path d="M83,40.58l6.78,68.81s-11.15,10.21-44.91,7.3V30Z" style="fill:#d05c5d"/><circle cx="44.91" cy="38.37" r="38.37" transform="translate(-13.98 43) rotate(-45)" style="fill:#d05c5d"/><path d="M85.63,146.5v20.23H4.21V146.5a40.71,40.71,0,0,1,81.42,0Z" style="fill:#f46eff"/><path d="M64.25,110.92a19.12,19.12,0,0,1-38.24,0c0-.16,0-.32,0-.48a40.71,40.71,0,0,1,38.22.23A2.09,2.09,0,0,1,64.25,110.92Z" style="fill:#c34cd8"/><path d="M34.1,91.8H55.73a0,0,0,0,1,0,0v19.78a10.81,10.81,0,0,1-10.81,10.81h0A10.81,10.81,0,0,1,34.1,111.58V91.8a0,0,0,0,1,0,0Z" style="fill:#f8b5a4"/><path d="M34.1,110.27a28.69,28.69,0,0,0,10.82,2.11h0a28.68,28.68,0,0,0,10.81-2.11V91.8H34.1Z" style="fill:#e58680"/><path d="M75.35,65.59H14.48a7.93,7.93,0,0,1-7.93-7.93h0a7.92,7.92,0,0,1,7.93-7.92H75.35a7.92,7.92,0,0,1,7.93,7.92h0A7.93,7.93,0,0,1,75.35,65.59Z" style="fill:#e58680"/><path d="M44.92,104.29h0a28.75,28.75,0,0,1-28.6-25.92L12.8,42.58A28.73,28.73,0,0,1,41.4,11h7A28.72,28.72,0,0,1,77,42.58L73.51,78.37A28.73,28.73,0,0,1,44.92,104.29Z" style="fill:#f8b5a4"/><path d="M33.76,61.53c0-2.33-1.28-4.22-2.86-4.22S28,59.2,28,61.53s1.28,4.22,2.86,4.22S33.76,63.86,33.76,61.53Z"/><path d="M23.66,55.51a11.46,11.46,0,0,1,2-3,8.93,8.93,0,0,1,3.08-2.2,10.83,10.83,0,0,1,1.9-.62,5,5,0,0,1,2,.09,5.67,5.67,0,0,1,3.2,2.12.12.12,0,0,1,0,.16l-.06,0h0a15,15,0,0,1-1.79-.2c-.57,0-1.09-.14-1.61-.12a9.6,9.6,0,0,0-3.07.06,11,11,0,0,0-5.46,3.82h0a.11.11,0,0,1-.14,0A.1.1,0,0,1,23.66,55.51Z" style="fill:#d05c5d"/><path d="M56.07,61.53c0-2.33,1.28-4.22,2.86-4.22s2.86,1.89,2.86,4.22-1.28,4.22-2.86,4.22S56.07,63.86,56.07,61.53Z"/><path d="M66,55.61a11,11,0,0,0-5.45-3.82,9.6,9.6,0,0,0-3.07-.06c-.52,0-1,.09-1.61.12a15.46,15.46,0,0,1-1.8.2h0a.1.1,0,0,1-.1-.11.08.08,0,0,1,0-.07,5.61,5.61,0,0,1,3.19-2.12,5,5,0,0,1,2-.09,10.83,10.83,0,0,1,1.9.62,8.93,8.93,0,0,1,3.08,2.2,11.22,11.22,0,0,1,2,3,.09.09,0,0,1,0,.13.1.1,0,0,1-.12,0Z" style="fill:#d05c5d"/><path d="M33.3,73c0,1.38-2.38,2.5-5.31,2.5S22.68,74.4,22.68,73s2.38-2.49,5.31-2.49S33.3,71.65,33.3,73Z" style="fill:#e58680"/><path d="M67.15,73c0,1.38-2.37,2.5-5.31,2.5S56.53,74.4,56.53,73s2.38-2.49,5.31-2.49S67.15,71.65,67.15,73Z" style="fill:#e58680"/><path d="M45.64,83.61H44.19a2.44,2.44,0,0,1-2.44-2.53l.73-19.89a2.44,2.44,0,0,1,2.44-2.35h0a2.44,2.44,0,0,1,2.43,2.35l.73,19.89A2.44,2.44,0,0,1,45.64,83.61Z" style="fill:#e58680"/><path d="M64.45,81.68V92.36a7.84,7.84,0,0,1-5.3,7.18l-6.94,2.64a20.39,20.39,0,0,1-14.59,0l-6.94-2.64a7.83,7.83,0,0,1-5.3-7.18V81.68A6.94,6.94,0,0,1,25.9,79a6.68,6.68,0,0,1,.51-1A8.58,8.58,0,0,1,32,74.12l8.41-1.91a20.31,20.31,0,0,1,9.11,0l8.4,1.91A8.61,8.61,0,0,1,63.41,78a6.58,6.58,0,0,1,.51,1A6.83,6.83,0,0,1,64.45,81.68Z" style="fill:#f8faff"/><path d="M25.87,82.36a28.65,28.65,0,0,0,4.68,1.5,37.58,37.58,0,0,0,4.81.86c.81.06,1.61.14,2.43.14s1.61.08,2.41.17,1.61.18,2.43.33a19.12,19.12,0,0,1,2.48.5l0,.2a14.53,14.53,0,0,1-5,1,19.47,19.47,0,0,1-5-.74,36.57,36.57,0,0,1-4.84-1.48,24.52,24.52,0,0,1-4.48-2.28Z" style="fill:#dcdee2"/><path d="M63.26,86.17A43.69,43.69,0,0,1,56.77,89a47.84,47.84,0,0,1-6.92,1.8,24.26,24.26,0,0,1-7.22.42,16.8,16.8,0,0,1-6.82-2.38l.07-.19c2.4.24,4.63.54,6.91.58a68.08,68.08,0,0,0,6.85,0,44.67,44.67,0,0,0,6.84-1.17A48,48,0,0,0,63.17,86Z" style="fill:#dcdee2"/><path d="M63.92,79a36.2,36.2,0,0,1-9.32-1.86,30.28,30.28,0,0,0-9.69-1.72,31.19,31.19,0,0,0-9.56,1.73A36.84,36.84,0,0,1,25.9,79a6.68,6.68,0,0,1,.51-1,36.71,36.71,0,0,0,8.66-1.79,32,32,0,0,1,9.84-1.77,31.25,31.25,0,0,1,10,1.76A36.17,36.17,0,0,0,63.41,78,6.58,6.58,0,0,1,63.92,79Z" style="fill:#d2d3d6"/><path d="M62.1,82.94a.42.42,0,0,1-.26-.08.49.49,0,0,1-.16-.69c.13-.21,13.27-21,14.06-32.41a.5.5,0,0,1,.53-.46.49.49,0,0,1,.47.53c-.81,11.66-13.67,32-14.21,32.88A.51.51,0,0,1,62.1,82.94Z" style="fill:#f8faff"/><path d="M62.73,95.83a.49.49,0,0,1-.31-.11.5.5,0,0,1-.08-.7c10-12.69,12.41-29.33,12.43-29.5a.51.51,0,0,1,.57-.43.5.5,0,0,1,.42.57c0,.16-2.41,17.07-12.63,30A.5.5,0,0,1,62.73,95.83Z" style="fill:#f8faff"/><path d="M27.73,82.94a.48.48,0,0,1-.42-.23c-.55-.86-13.41-21.22-14.21-32.88a.48.48,0,0,1,.46-.53.5.5,0,0,1,.53.46C14.88,61.17,28,82,28.15,82.17a.5.5,0,0,1-.15.69A.47.47,0,0,1,27.73,82.94Z" style="fill:#f8faff"/><path d="M27.1,95.83a.47.47,0,0,1-.39-.19c-10.22-12.91-12.62-29.82-12.64-30a.5.5,0,0,1,.43-.57.51.51,0,0,1,.56.43c0,.17,2.39,16.81,12.43,29.5a.49.49,0,0,1-.08.7A.45.45,0,0,1,27.1,95.83Z" style="fill:#f8faff"/><path d="M8.9,44.84a234.26,234.26,0,0,1,32.85-2.22l3.16-16L46,44.84s29.72-1.05,34.42,1.66c0,0,1.55-35.72-33.39-38.56C47,7.94,8.9,3.84,8.9,44.84Z" style="fill:#d05c5d"/><path d="M15.78,39.76A31.55,31.55,0,0,1,16.13,29a34.53,34.53,0,0,1,3.75-10.2A36.46,36.46,0,0,1,23,14.32a32,32,0,0,1,3.87-3.85,29.32,29.32,0,0,1,9.4-5.23,48.51,48.51,0,0,0-8.36,6.39,37.78,37.78,0,0,0-6.29,8.18,43.51,43.51,0,0,0-4,9.58A54.16,54.16,0,0,0,15.78,39.76Z" style="fill:#e58680"/></g></g></g></svg>